<?xml version="1.0" encoding="UTF-8" standalone="no"?>
<svg width="102.658mm" height="34.3958mm"
 xmlns="http://www.w3.org/2000/svg" xmlns:xlink="http://www.w3.org/1999/xlink"  version="1.2" baseProfile="tiny">
<desc>Created by HiQPdf</desc>
<defs>
</defs>
<g fill="none" stroke="black" stroke-width="1" fill-rule="evenodd" stroke-linecap="square" stroke-linejoin="bevel" >

<g fill="#000000" fill-opacity="1" stroke="#000000" stroke-opacity="1" stroke-width="1" stroke-linecap="square" stroke-linejoin="miter" stroke-miterlimit="2" transform="matrix(1,0,0,1,0,0)"
>
</g>

<g fill="#000000" fill-opacity="1" stroke="#000000" stroke-opacity="1" stroke-width="1" stroke-linecap="square" stroke-linejoin="miter" stroke-miterlimit="2" transform="matrix(1,0,0,1,0,0)"
>
</g>

<g fill="#000000" fill-opacity="1" stroke="#000000" stroke-opacity="1" stroke-width="1" stroke-linecap="square" stroke-linejoin="miter" stroke-miterlimit="2" transform="matrix(1,0,0,1,0,0)"
>
</g>

<g fill="#000000" fill-opacity="1" stroke="#000000" stroke-opacity="1" stroke-width="1" stroke-linecap="square" stroke-linejoin="miter" stroke-miterlimit="2" transform="matrix(1,0,0,1,0,0)"
>
</g>

<g fill="#000000" fill-opacity="1" stroke="#000000" stroke-opacity="1" stroke-width="1" stroke-linecap="square" stroke-linejoin="miter" stroke-miterlimit="2" transform="matrix(0.999891,0,0,0.999891,8.02066,8)"
>
</g>

<g fill="#000000" fill-opacity="1" stroke="#000000" stroke-opacity="1" stroke-width="1" stroke-linecap="square" stroke-linejoin="miter" stroke-miterlimit="2" transform="matrix(0.949897,0,0,0.949897,8.02066,8)"
>
</g>

<g fill="#000000" fill-opacity="1" stroke="none" transform="matrix(0.949897,0,0,0.949897,8.02066,8)"
>
<path vector-effect="none" fill-rule="nonzero" d="M10,0 L390,0 C395.523,0 400,4.47715 400,10 L400,111 C400,116.523 395.523,121 390,121 L10,121 C4.47715,121 0,116.523 0,111 L0,10 C0,4.47715 4.47715,0 10,0 "/>
</g>

<g fill="#000000" fill-opacity="1" stroke="#000000" stroke-opacity="1" stroke-width="1" stroke-linecap="square" stroke-linejoin="miter" stroke-miterlimit="2" transform="matrix(0.949897,0,0,0.949897,8.02066,8)"
>
</g>

<g fill="#000000" fill-opacity="1" stroke="#000000" stroke-opacity="1" stroke-width="1" stroke-linecap="square" stroke-linejoin="miter" stroke-miterlimit="2" transform="matrix(0.999891,0,0,0.999891,8.02066,8)"
>
</g>

<g fill="#000000" fill-opacity="1" stroke="#000000" stroke-opacity="1" stroke-width="1" stroke-linecap="square" stroke-linejoin="miter" stroke-miterlimit="2" transform="matrix(0.780856,0,0,0.780856,224.694,81.3735)"
>
</g>

<g fill="#f2f2f2" fill-opacity="1" stroke="none" transform="matrix(0.780856,0,0,0.780856,224.694,81.3735)"
>
<path vector-effect="none" fill-rule="nonzero" d="M1.6692,8.475 L17.6072,8.475 L17.6072,10.8227 L10.8118,10.8227 L10.8118,19.9159 L8.4642,19.9159 L8.4642,10.8227 L1.6696,10.8227 L1.6696,8.475 L1.6692,8.475 M39.279,9.649 C40.1968,10.5589 40.1892,11.875 40.1776,13.8672 C40.1766,14.0155 40.1759,14.1692 40.1752,14.3284 C40.1708,15.5107 40.1676,16.365 40.0435,17.0854 C39.9378,17.6996 39.6938,18.5849 38.7999,19.1808 C37.6678,19.9354 35.9767,19.9525 32.2717,19.9895 C31.6931,19.9952 31.1595,19.9996 30.6671,19.9996 C27.7317,19.9996 26.2561,19.8442 25.3133,18.9074 C24.3313,17.9317 24.3368,16.4948 24.3449,14.3198 C24.3539,11.893 24.3594,10.4282 25.5896,9.51876 C26.651,8.73426 28.1924,8.7136 31.5694,8.66822 L32.2434,8.65894 C36.4522,8.59879 38.1942,8.57381 39.2788,9.64918 L39.279,9.649 M37.845,13.8542 C37.8515,12.7094 37.8585,11.5254 37.6364,11.3054 C37.3608,11.0322 36.1241,10.969 34.478,10.969 C33.8006,10.969 33.0538,10.9797 32.2762,10.9909 L31.6001,11.0001 C29.1807,11.0326 27.4327,11.0561 26.9751,11.3942 C26.6863,11.6077 26.6816,12.8686 26.6761,14.3288 C26.671,15.6847 26.6662,16.9654 26.9563,17.2536 C27.4117,17.7061 29.8701,17.6814 32.2477,17.6579 C34.9779,17.6307 36.9505,17.6109 37.5057,17.2408 C37.8325,17.0229 37.8367,15.8892 37.8426,14.32 C37.8431,14.1592 37.844,14.004 37.845,13.8541 L37.845,13.8542 M62.835,8.487 L62.8768,14.187 C62.8939,15.4482 62.385,16.6726 61.4436,17.635 C60.4454,18.6553 58.5028,19.877 54.9168,19.9034 C54.882,19.9037 54.847,19.9038 54.8125,19.9038 C52.0979,19.9038 49.8309,19.124 48.4199,17.7028 C47.45,16.7258 46.9246,15.481 46.9394,14.1964 L46.8974,8.50459 L49.245,8.48719 L49.2873,14.2038 L49.2871,14.2166 C49.2774,14.8789 49.5538,15.5123 50.0861,16.0486 C51.0663,17.0359 52.7747,17.5701 54.8997,17.5556 C57.0673,17.5396 58.7953,16.9848 59.7657,15.993 C60.2749,15.4726 60.5391,14.8584 60.5297,14.2165 L60.5297,14.2081 L60.4876,8.50452 L62.835,8.487 M83.939,17.557 L85.101,17.5396 L85.1358,19.8638 L83.9737,19.8812 C83.7928,19.8839 83.5883,19.8871 83.365,19.8871 C81.751,19.8871 79.1624,19.727 77.5272,18.1159 C76.7992,17.3986 76.3407,16.4869 76.1574,15.3959 L71.952,15.3959 L71.9354,19.8855 L69.6108,19.8768 L69.6482,9.74984 L69.6482,8.58634 L69.6525,8.58634 L69.6525,8.58203 L70.8137,8.58634 L81.7647,8.58634 C83.2375,8.58634 85.4285,9.49312 85.4285,11.9911 C85.4285,14.4893 83.3923,15.3961 82.0237,15.3961 L78.5411,15.3961 C78.6665,15.8213 78.8695,16.1754 79.1585,16.4601 C80.327,17.6111 82.7665,17.5747 83.9389,17.557 L83.939,17.557 M71.9734,13.0714 L82.0144,13.0714 C82.1159,13.0678 82.4187,13.0297 82.6682,12.8917 C82.8843,12.7721 83.1051,12.5716 83.1051,11.9909 C83.1051,11.524 82.9471,11.2712 82.5412,11.0893 C82.1724,10.9239 81.7697,10.9106 81.7659,10.9106 L71.9737,10.9106 L71.9737,13.0714 L71.9734,13.0714"/>
</g>

<g fill="#000000" fill-opacity="1" stroke="#000000" stroke-opacity="1" stroke-width="1" stroke-linecap="square" stroke-linejoin="miter" stroke-miterlimit="2" transform="matrix(0.780856,0,0,0.780856,224.694,81.3735)"
>
</g>

<g fill="#000000" fill-opacity="1" stroke="#000000" stroke-opacity="1" stroke-width="1" stroke-linecap="square" stroke-linejoin="miter" stroke-miterlimit="2" transform="matrix(0.999891,0,0,0.999891,8.02066,8)"
>
</g>

<g fill="#000000" fill-opacity="1" stroke="#000000" stroke-opacity="1" stroke-width="1" stroke-linecap="square" stroke-linejoin="miter" stroke-miterlimit="2" transform="matrix(1.28429,0,0,1.28429,15.0095,22.6205)"
>
</g>

<g fill="#f2f2f2" fill-opacity="1" stroke="none" transform="matrix(1.28429,0,0,1.28429,15.0095,22.6205)"
>
<path vector-effect="none" fill-rule="nonzero" d="M21.426,40 C20.814,40 20.2867,39.7266 19.844,39.1797 L6.23097,19.9997 L6.23097,28.652 C6.23097,29.1989 6.04217,29.6611 5.66456,30.0387 C5.28696,30.4163 4.83123,30.6051 4.29736,30.6051 C3.75049,30.6051 3.28825,30.4163 2.91064,30.0387 C2.53304,29.6611 2.34424,29.1989 2.34423,28.652 C2.34423,18.8473 2.35074,13.9124 2.36377,13.8473 C2.37679,13.3916 2.52002,13.001 2.79345,12.6754 C2.92366,12.5452 3.01155,12.4606 3.05713,12.4215 C3.1027,12.3825 3.13199,12.3597 3.14502,12.3532 C3.15804,12.3467 3.1678,12.3434 3.17431,12.3434 C3.18082,12.3434 3.19384,12.3369 3.21338,12.3239 L3.27197,12.2848 C3.27197,12.2848 3.29476,12.2685 3.34033,12.236 C3.3859,12.2034 3.41194,12.1872 3.41845,12.1872 L3.49658,12.1481 C3.49658,12.1481 3.52262,12.1383 3.5747,12.1188 C3.62679,12.0993 3.65283,12.0895 3.65283,12.0895 C3.65283,12.0895 3.68213,12.0797 3.74072,12.0602 C3.79931,12.0407 3.82861,12.0342 3.82861,12.0407 L3.90674,12.0211 C3.90674,12.0211 3.93603,12.0146 3.99463,12.0016 C4.05322,11.9886 4.15413,11.9853 4.29736,11.9919 C4.64892,11.9919 4.96793,12.0765 5.25439,12.2458 C5.42366,12.3369 5.5734,12.4541 5.70361,12.5973 C5.76871,12.6624 10.3651,19.1273 19.4927,31.9919 L19.4927,13.9259 C19.4927,13.392 19.6815,12.9363 20.0591,12.5587 C20.4367,12.1811 20.8924,11.9923 21.4263,11.9923 C21.9601,11.9923 22.4191,12.1811 22.8033,12.5587 C23.1874,12.9363 23.3795,13.392 23.3794,13.9259 L23.3794,38.0669 C23.3794,38.9002 22.9237,39.5122 22.0123,39.9028 C21.8169,39.9679 21.6216,40.0005 21.4263,40.0005 L21.426,40 M4.2969,40 C3.75002,40 3.28779,39.8112 2.91018,39.4336 C2.53258,39.056 2.34377,38.6003 2.34377,38.0664 C2.34377,37.5195 2.53257,37.0573 2.91018,36.6797 C3.28778,36.3021 3.75001,36.1133 4.29688,36.1133 C4.83073,36.1133 5.28646,36.3021 5.66406,36.6797 C6.04167,37.0573 6.23047,37.5195 6.23047,38.0664 C6.23048,38.6002 6.04167,39.056 5.66407,39.4336 C5.28646,39.8112 4.83073,40 4.29687,40 L4.2969,40 M45.4107,40 L30.0007,40 C29.4668,40 29.0111,39.8112 28.6335,39.4336 C28.2559,39.056 28.0671,38.6003 28.0671,38.0664 C28.0671,37.5195 28.2559,37.0573 28.6335,36.6797 C29.0111,36.3021 29.4668,36.1133 30.0007,36.1133 L45.4107,36.1133 C45.9445,36.1133 46.4002,36.3021 46.7779,36.6797 C47.1555,37.0573 47.3443,37.5195 47.3443,38.0664 C47.3443,38.6002 47.1555,39.056 46.7779,39.4336 C46.4003,39.8112 45.9445,40 45.4107,40 L45.4107,40 M45.4107,15.859 L30.0007,15.859 C29.4668,15.859 29.0111,15.6702 28.6335,15.2926 C28.2559,14.915 28.0671,14.4593 28.0671,13.9254 C28.0671,13.3915 28.2559,12.9358 28.6335,12.5582 C29.0111,12.1806 29.4668,11.9918 30.0007,11.9918 L45.4107,11.9918 C45.9445,11.9918 46.4002,12.1806 46.7779,12.5582 C47.1555,12.9358 47.3443,13.3915 47.3443,13.9254 C47.3443,14.4593 47.1555,14.915 46.7779,15.2926 C46.4002,15.6702 45.9445,15.859 45.4107,15.859 M45.4107,27.93 L30.0007,27.93 C29.4668,27.93 29.0111,27.7412 28.6335,27.3636 C28.2559,26.986 28.0671,26.5303 28.0671,25.9964 C28.0671,25.4625 28.2559,25.0035 28.6335,24.6194 C29.0111,24.2353 29.4668,24.0432 30.0007,24.0432 L45.4107,24.0432 C45.9445,24.0432 46.4002,24.2353 46.7779,24.6194 C47.1555,25.0035 47.3443,25.4625 47.3443,25.9964 C47.3443,26.5303 47.1555,26.986 46.7779,27.3636 C46.4002,27.7412 45.9445,27.93 45.4107,27.93 L45.4107,27.93 M76.1526,40 C76.5432,40 76.9143,39.8763 77.2658,39.6289 C77.8127,39.2253 78.0862,38.7109 78.0862,38.0859 C78.0862,37.6823 77.9625,37.3047 77.7151,36.9531 L66.3481,20.8201 C65.9184,20.2733 65.391,19.9998 64.766,19.9998 C64.141,19.9998 63.6137,20.2733 63.184,20.8201 L55.3129,31.9531 L55.3129,13.9061 C55.3129,13.3723 55.1241,12.9165 54.7465,12.5389 C54.3689,12.1613 53.9132,11.9725 53.3793,11.9725 C52.8455,11.9725 52.3897,12.1613 52.0121,12.5389 C51.6345,12.9165 51.4457,13.3723 51.4457,13.9061 L51.4457,38.0661 C51.4457,38.8995 51.8949,39.5115 52.7934,39.9021 C53.0147,39.9542 53.2166,39.9802 53.3988,39.9802 C54.0108,39.9802 54.5317,39.7133 54.9613,39.1794 L64.766,25.2924 L74.5512,39.1794 C75.007,39.7263 75.5408,39.9997 76.1528,39.9997 L76.1526,40"/>
</g>

<g fill="#000000" fill-opacity="1" stroke="#000000" stroke-opacity="1" stroke-width="1" stroke-linecap="square" stroke-linejoin="miter" stroke-miterlimit="2" transform="matrix(1.28429,0,0,1.28429,15.0095,22.6205)"
>
</g>

<g fill="#000000" fill-opacity="1" stroke="#000000" stroke-opacity="1" stroke-width="1" stroke-linecap="square" stroke-linejoin="miter" stroke-miterlimit="2" transform="matrix(0.999891,0,0,0.999891,8.02066,8)"
>
</g>

<g fill="#000000" fill-opacity="1" stroke="#000000" stroke-opacity="1" stroke-width="1" stroke-linecap="square" stroke-linejoin="miter" stroke-miterlimit="2" transform="matrix(0.615533,0,0,0.615533,133.142,24.9982)"
>
</g>

<g fill="#ffffff" fill-opacity="1" stroke="none" transform="matrix(0.615533,0,0,0.615533,133.142,24.9982)"
>
<path vector-effect="none" fill-rule="nonzero" d="M3.542,90.221 L3.519,90.225 L3.501,90.266 L3.509,90.309 L3.602,90.336 L3.622,90.33 L3.622,90.275 L3.591,90.234 L3.542,90.221 M3.528,90.412 L3.46,90.389 L3.39,90.384 L3.346,90.42 L3.343,90.468 L3.461,90.578 L3.5,90.602 L3.535,90.551 L3.562,90.473 L3.593,90.43 L3.577,90.416 L3.528,90.412 M3.353,88.314 L3.478,88.271 L3.586,88.226 L3.682,88.212 L3.768,88.176 L3.77,88.138 L3.66,88.103 L3.55,88.107 L3.473,88.148 L3.353,88.148 L3.194,88.185 L3.168,88.253 L3.165,88.286 L3.202,88.315 L3.353,88.314 M4.346,90.84 L4.226,90.865 L4.123,90.939 L4.109,91.043 L4.131,91.129 L4.118,91.159 L4.15,91.176 L4.226,91.148 L4.44,91.007 L4.492,90.946 L4.452,90.883 L4.346,90.84 M4.241,88.393 L4.459,88.375 L4.501,88.361 L4.564,88.377 L5.406,88.148 L5.428,88.128 L5.389,88.107 L5.343,88.111 L4.962,88.13 L4.673,88.23 L4.471,88.238 L4.374,88.31 L4.197,88.33 L4.173,88.353 L4.2,88.367 L4.199,88.384 L4.241,88.393 M3.871,89.941 L3.837,89.951 L3.804,89.951 L3.67,89.986 L3.655,90.003 L3.649,90.038 L3.609,90.07 L3.588,90.101 L3.603,90.123 L3.697,90.144 L3.764,90.146 L3.914,90.023 L3.947,89.978 L3.926,89.939 L3.871,89.941 M68.143,15.481 L68.124,15.575 L68.201,15.766 L68.197,15.852 L68.084,15.923 L68.159,15.954 L68.435,15.958 L68.551,15.927 L68.568,15.85 L68.515,15.663 L68.472,15.557 L68.368,15.465 L68.247,15.425 L68.143,15.481 M3.626,87.84 L4.11,87.44 L4.243,87.427 L4.354,87.574 L4.344,87.665 L4.367,87.82 L4.408,87.972 L4.454,88.056 L4.511,88.07 L4.583,88.068 L4.645,88.037 L4.7,87.896 L4.763,87.937 L4.819,88.013 L4.835,88.056 L5.008,88.037 L5.144,87.967 L5.232,87.845 L5.263,87.674 L5.241,87.506 L5.18,87.332 L5.076,87.182 L4.932,87.102 L4.861,87.092 L4.717,87.1 L4.094,87.25 L3.898,87.246 L3.807,87.264 L3.746,87.379 L3.657,87.496 L3.634,87.521 L3.544,87.575 L3.452,87.701 L3.378,87.842 L3.338,87.946 L3.502,87.905 L3.626,87.84 M70.168,14.213 L70.299,14.199 L70.416,14.163 L70.484,14.099 L70.484,14 L70.426,13.919 L70.357,13.855 L70.326,13.806 L70.221,13.8 L70.024,13.889 L69.912,14.037 L70.061,14.208 L70.168,14.213 M75.373,17.033 L75.437,17.046 L75.488,17.077 L75.502,17.106 L75.505,17.132 L75.499,17.156 L75.488,17.177 L75.465,17.211 L75.455,17.241 L75.473,17.267 L75.571,17.306 L75.635,17.319 L75.666,17.322 L75.717,17.324 L75.766,17.321 L75.815,17.311 L75.865,17.293 L75.828,17.216 L75.778,17.165 L75.712,17.138 L75.625,17.129 L75.539,16.925 L75.489,16.864 L75.276,16.917 L75.315,17.001 L75.373,17.033 M72.021,14.188 L71.82,13.992 L71.873,14.177 L72.051,14.334 L72.272,14.412 L72.454,14.362 L72.51,14.421 L72.535,14.464 L72.537,14.511 L72.51,14.58 L72.696,14.544 L72.762,14.542 L72.825,14.581 L72.849,14.649 L72.868,14.845 L72.909,14.926 L72.991,14.924 L73.105,14.869 L73.208,14.843 L73.253,14.926 L73.257,15.024 L73.284,15.117 L73.343,15.175 L73.452,15.165 L73.523,15.107 L73.675,14.846 L73.612,14.804 L73.465,14.634 L73.457,14.603 L73.465,14.566 L73.466,14.536 L73.441,14.522 L73.396,14.516 L73.353,14.498 L73.312,14.474 L73.279,14.447 L73.181,14.313 L73.181,14.222 L73.226,14.137 L73.252,14.02 L73.292,13.958 L73.362,13.878 L73.401,13.809 L73.332,13.779 L73.259,13.766 L73.061,13.7 L72.858,13.598 L72.747,13.506 L72.729,13.417 L72.881,13.356 L72.649,13.215 L72.617,13.168 L72.598,13.072 L72.545,13 L72.479,12.953 L72.399,12.928 L72.2,12.952 L72.11,13.073 L72.139,13.229 L72.293,13.357 L72.205,13.435 L72.105,13.465 L71.873,13.464 L71.964,13.594 L72.119,13.66 L72.226,13.726 L72.16,13.861 L72.135,13.945 L72.151,14.049 L72.153,14.147 L72.084,14.21 L72.021,14.188 M69.449,18.649 L69.547,18.581 L69.627,18.595 L69.797,18.725 L69.738,18.783 L70.054,18.88 L70.22,18.9 L70.381,18.883 L70.536,18.838 L70.599,18.837 L70.701,18.847 L70.734,18.829 L70.755,18.77 L70.747,18.694 L70.688,18.537 L70.696,18.46 L70.782,18.396 L70.891,18.37 L70.952,18.33 L70.884,18.224 L70.806,18.141 L70.763,18.119 L70.591,18.195 L70.249,18.436 L70.104,18.512 L70.022,18.473 L69.959,18.396 L69.875,18.353 L69.482,18.36 L69.422,18.353 L69.357,18.448 L69.338,18.581 L69.369,18.673 L69.449,18.649 M6.342,84.207 L6.427,84.305 L6.49,84.412 L6.641,84.468 L6.81,84.508 L6.937,84.565 L7.073,84.664 L7.177,84.685 L7.438,84.65 L7.147,84.129 L7.036,83.865 L6.965,83.586 L6.943,83.56 L6.923,83.54 L6.91,83.516 L6.909,83.479 L6.44,84.008 L6.388,84.084 L6.403,84.119 L6.326,84.146 L6.342,84.207 M6.671,94.361 L6.625,94.357 L6.509,94.366 L6.579,94.428 L6.681,94.51 L6.67,94.463 L6.681,94.397 L6.671,94.361 M16.589,98.168 L16.682,98.189 L16.768,98.198 L16.854,98.161 L16.875,98.109 L16.923,97.912 L16.961,97.838 L16.9,97.816 L16.83,97.771 L16.773,97.715 L16.749,97.653 L16.723,97.623 L16.664,97.635 L16.561,97.677 L16.46,97.683 L16.042,97.787 L15.955,97.784 L15.955,97.73 L16.016,97.704 L16.052,97.673 L16.079,97.631 L16.108,97.577 L15.804,97.482 L15.606,97.445 L15.393,97.337 L15.314,97.313 L15.144,97.376 L14.873,97.616 L14.678,97.632 L15.055,97.269 L15.077,97.183 L14.999,97.033 L15.145,96.98 L15.583,96.993 L15.53,97.099 L16.233,97.146 L16.426,97.099 L16.426,97.05 L16.267,96.991 L16.42,96.889 L16.326,96.792 L16.15,96.721 L16.055,96.7 L16.009,96.595 L15.9,96.521 L15.77,96.458 L15.661,96.38 L14.968,95.706 L14.831,95.6 L14.683,95.514 L14.318,95.384 L14.231,95.399 L14.123,95.475 L14.021,95.516 L13.902,95.501 L13.694,95.447 L13.458,95.453 L13.285,95.494 L13.176,95.607 L13.135,95.825 L13.116,95.867 L13.086,95.906 L13.073,95.95 L13.106,96.008 L13.142,96.045 L13.166,96.078 L13.178,96.116 L13.182,96.166 L13.152,96.225 L13.091,96.283 L13.058,96.35 L13.106,96.434 L13.368,96.707 L13.47,96.873 L13.51,97.049 L13.492,97.156 L13.448,97.24 L13.319,97.392 L13.218,97.455 L12.99,97.455 L12.894,97.496 L12.857,97.664 L12.917,97.87 L12.947,98.057 L12.813,98.161 L12.708,98.154 L12.616,98.121 L12.514,98.1 L12.388,98.132 L12.204,98.217 L12.122,98.27 L12.043,98.348 L11.982,98.455 L11.983,98.542 L12.009,98.632 L12.021,98.749 L11.982,98.846 L11.929,98.927 L11.93,98.998 L12.064,99.062 L11.795,99.154 L11.636,99.24 L11.486,99.256 L11.406,99.305 L11.315,99.43 L11.22,99.618 L11.171,99.815 L11.214,99.963 L11.375,100 L11.64,99.988 L11.902,99.943 L12.044,99.89 L12.154,99.781 L12.292,99.679 L12.39,99.677 L12.388,99.865 L12.632,99.684 L12.718,99.583 L12.813,99.436 L12.341,99.561 L12.1,99.594 L11.959,99.49 L12.186,99.433 L12.585,99.214 L12.708,99.277 L12.758,99.089 L12.761,99.061 L12.82,99.037 L12.949,99.015 L13.111,98.912 L13.174,98.969 L13.225,99.08 L13.299,99.174 L13.396,99.185 L13.677,99.152 L13.798,99.199 L13.901,99.262 L14.036,99.306 L14.174,99.308 L14.278,99.251 L14.421,99.122 L14.906,98.811 L15.102,98.748 L15.584,98.69 L16.162,98.69 L16.073,98.569 L16.342,98.649 L16.427,98.61 L16.378,98.421 L16.42,98.365 L16.591,98.372 L16.65,98.403 L16.708,98.504 L16.75,98.532 L16.81,98.534 L16.891,98.526 L16.949,98.501 L16.936,98.452 L16.836,98.376 L16.485,98.214 L16.485,98.16 L16.589,98.168 M63.563,53.184 L63.356,53.205 L63.276,53.223 L63.165,53.299 L63.069,53.317 L62.971,53.296 L62.858,53.243 L62.753,53.175 L62.67,53.1 L62.598,53.121 L62.436,53.146 L62.287,53.224 L62.203,53.218 L62.119,53.198 L62.03,53.203 L61.891,53.272 L61.785,53.344 L61.67,53.379 L61.5,53.336 L61.419,53.377 L61.2,53.424 L61.016,53.428 L61.041,53.336 L61.148,53.262 L61.288,53.194 L61.432,53.166 L61.551,53.203 L61.606,53.123 L61.688,53.09 L61.78,53.101 L61.877,53.152 L62,53.041 L62.206,52.994 L62.613,52.993 L62.722,52.976 L62.777,52.933 L62.818,52.881 L62.881,52.832 L63.038,52.757 L63.041,52.775 L63.066,52.765 L63.164,52.742 L63.2,52.726 L63.152,52.609 L63.097,52.539 L62.933,52.404 L62.871,52.327 L62.813,52.224 L62.815,52.16 L62.932,52.197 L62.957,52.122 L63.012,52.029 L63.067,51.97 L63.09,52.006 L63.09,52.324 L63.123,52.401 L63.2,52.401 L63.273,52.371 L63.302,52.35 L63.283,52.329 L63.379,52.271 L63.488,52.222 L63.514,52.243 L63.535,52.175 L63.543,52.028 L63.589,51.951 L63.988,51.468 L64.047,51.333 L63.988,51.233 L63.879,51.264 L63.566,51.501 L63.402,51.663 L63.271,51.766 L63.122,51.807 L62.982,51.713 L62.948,51.647 L62.946,51.596 L62.98,51.563 L63.146,51.542 L63.185,51.515 L63.196,51.459 L63.198,51.367 L63.157,51.256 L63.062,51.14 L62.937,51.05 L62.82,51.023 L62.849,51.167 L62.775,51.292 L62.644,51.335 L62.513,51.234 L62.394,51.374 L62.248,51.409 L62.086,51.371 L61.921,51.288 L61.639,51.062 L61.506,51.017 L61.492,51.181 L61.372,51.136 L61.318,51.166 L61.328,51.245 L61.391,51.345 L61.121,51.345 L61.178,51.435 L61.418,51.634 L61.52,51.671 L61.569,51.589 L61.602,51.468 L61.651,51.392 L61.778,51.394 L61.844,51.48 L61.84,51.595 L61.706,51.751 L61.741,51.827 L61.873,51.979 L61.637,51.979 L61.536,52.067 L61.469,52.214 L61.333,52.402 L61.289,52.164 L61.309,52.043 L61.391,51.921 L61.121,51.873 L61.133,51.951 L61.121,52.001 L61.082,52.025 L61.016,52.032 L60.958,52.051 L60.961,52.093 L60.977,52.147 L60.961,52.197 L60.864,52.262 L60.763,52.315 L60.683,52.387 L60.642,52.51 L60.709,52.747 L60.916,52.755 L61.331,52.619 L61.278,52.724 L61.319,52.75 L61.35,52.767 L61.387,52.771 L61.438,52.773 L61.51,52.758 L61.526,52.728 L61.526,52.691 L61.547,52.668 L61.681,52.637 L62.556,52.619 L62.388,52.76 L62.162,52.809 L61.701,52.774 L61.823,52.865 L61.871,52.886 L61.749,52.939 L61.561,52.984 L61.374,53.003 L61.251,52.967 L61.129,52.913 L60.967,52.909 L60.641,52.939 L60.704,53.007 L60.79,53.019 L60.894,53.019 L61.008,53.045 L61.008,53.1 L60.715,53.16 L59.896,53.524 L59.832,53.503 L59.766,53.466 L59.711,53.405 L59.686,53.316 L60.11,53.222 L60.332,53.136 L60.431,53.045 L60.447,52.95 L60.523,52.778 L60.541,52.698 L60.49,52.59 L60.373,52.51 L60.23,52.464 L60.109,52.463 L60.193,52.348 L60.314,52.319 L60.424,52.266 L60.48,52.087 L60.545,52.115 L60.599,52.116 L60.632,52.082 L60.644,52.008 L60.634,51.977 L60.595,51.93 L60.586,51.899 L60.607,51.836 L60.654,51.838 L60.709,51.864 L60.746,51.876 L60.802,51.884 L60.874,51.915 L60.937,51.918 L60.961,51.848 L60.98,51.77 L61.021,51.725 L61.088,51.707 L61.174,51.717 L60.974,51.636 L60.703,51.647 L60.191,51.717 L60.185,51.753 L60.003,51.953 L59.97,52.075 L59.89,52.117 L59.8,52.097 L59.734,52.034 L59.808,51.978 L59.873,51.906 L59.924,51.816 L59.949,51.714 L59.819,51.679 L59.817,51.622 L59.893,51.558 L60.002,51.503 L59.813,51.349 L59.932,51.271 L60.153,51.248 L60.274,51.261 L60.382,51.346 L60.628,51.34 L60.878,51.276 L61.01,51.184 L60.94,51.171 L60.915,51.15 L60.9,51.121 L60.851,51.076 L60.925,51.017 L61.004,50.993 L61.086,50.996 L61.174,51.021 L61.209,50.913 L61.283,50.857 L61.329,50.801 L61.28,50.698 L61.653,50.77 L61.789,50.744 L61.703,50.539 L61.64,50.499 L61.547,50.482 L61.456,50.482 L61.392,50.491 L61.011,50.649 L60.894,50.678 L60.851,50.698 L60.843,50.721 L60.824,50.823 L60.803,50.86 L60.567,51.044 L60.538,51.074 L60.35,51.04 L60.379,50.683 L60.19,50.783 L60.016,50.988 L59.977,51.021 L59.581,51.07 L59.496,51.101 L59.423,51.144 L59.243,51.215 L59.18,51.26 L59.055,51.383 L59.045,51.424 L59.047,51.528 L59.094,51.551 L59.393,51.393 L59.492,51.414 L59.553,51.471 L59.56,51.549 L59.5,51.635 L59.315,51.711 L59.106,51.764 L58.996,51.85 L59.104,52.036 L58.995,52.089 L58.956,52.015 L58.918,51.992 L58.878,52.015 L58.841,52.089 L58.788,52.089 L58.776,51.939 L58.698,51.8 L58.577,51.699 L58.439,51.659 L58.325,51.699 L58.189,51.79 L58.118,51.898 L58.199,51.98 L58.134,52.066 L58.069,52.062 L58.004,52.032 L57.937,52.035 L57.874,52.088 L57.75,52.274 L57.643,52.36 L57.514,52.425 L57.243,52.514 L57.271,52.456 L57.294,52.387 L57.292,52.326 L57.238,52.3 L57.157,52.324 L57.07,52.437 L56.879,52.5 L56.397,52.859 L56.096,53.177 L55.963,53.289 L55.693,53.412 L55.407,53.6 L55.258,53.658 L55.094,53.68 L54.733,53.676 L54.563,53.647 L54.425,53.582 L54.371,53.469 L54.4,53.41 L54.535,53.363 L54.578,53.313 L54.573,53.251 L54.476,53.042 L54.402,52.727 L54.341,52.627 L54.258,52.725 L54.205,52.725 L54.184,52.637 L54.141,52.578 L54.02,52.482 L53.993,52.414 L54.048,52.137 L54.12,52.165 L54.183,52.213 L54.23,52.276 L54.259,52.348 L54.292,52.221 L54.231,52.117 L54.145,52.013 L54.1,51.894 L54.085,51.775 L53.991,51.388 L53.92,51.43 L53.861,51.44 L53.801,51.427 L53.73,51.393 L53.925,51.274 L54.101,51.128 L54.191,51.027 L54.207,50.974 L54.187,50.904 L54.16,50.76 L54.236,50.417 L54.258,50.379 L54.174,50.263 L54.074,50.237 L53.959,50.242 L53.83,50.225 L53.923,50.145 L53.933,50.082 L53.89,50.009 L53.933,49.854 L53.929,49.783 L53.89,49.686 L53.783,49.566 L53.673,49.557 L53.563,49.628 L53.461,49.748 L53.381,49.66 L53.32,49.654 L53.195,49.748 L53.183,49.784 L53.2,49.886 L53.169,49.908 L53.068,49.913 L53.029,49.928 L52.841,50.041 L52.739,50.072 L52.639,50.045 L51.973,49.641 L51.704,49.433 L51.6,49.213 L51.432,49.28 L51.38,49.319 L51.339,49.194 L51.434,48.963 L51.434,48.832 L51.397,48.796 L51.268,48.756 L51.223,48.73 L51.117,48.523 L51.249,48.533 L51.358,48.528 L51.4,48.47 L51.33,48.309 L51.445,48.232 L51.515,48.086 L51.601,47.779 L51.672,47.619 L51.752,47.541 L51.873,47.515 L53.551,47.621 L53.73,47.566 L53.476,47.545 L53.011,47.444 L52.508,47.395 L50.97,47.454 L50.616,47.595 L50.316,47.885 L50.415,47.916 L50.525,47.902 L50.636,47.854 L50.736,47.779 L50.761,47.807 L50.851,47.885 L50.843,47.955 L50.605,48.037 L50.64,48.151 L50.591,48.187 L50.525,48.228 L50.456,48.251 L50.33,48.2 L50.273,48.252 L50.228,48.324 L50.189,48.362 L50.081,48.328 L50.091,48.242 L50.216,47.985 L49.928,48.073 L49.589,48.323 L48.813,49.054 L48.412,49.291 L48.38,49.32 L48.286,49.342 L48.069,49.456 L47.964,49.53 L47.908,49.537 L47.794,49.532 L47.741,49.553 L47.707,49.6 L47.684,49.652 L47.659,49.687 L47.608,49.705 L47.557,49.705 L47.504,49.71 L47.451,49.75 L47.434,49.784 L47.42,49.866 L47.394,49.91 L47.208,50.097 L47.107,50.251 L47.053,50.297 L46.985,50.318 L46.889,50.323 L46.822,50.383 L46.818,50.52 L46.864,50.762 L46.864,51.606 L46.911,52.008 L46.898,52.08 L46.829,52.258 L46.81,52.352 L46.879,53.209 L46.923,53.305 L47.074,53.524 L46.982,53.526 L46.89,53.559 L46.818,53.596 L46.782,53.606 L46.708,53.585 L46.67,53.659 L46.646,53.847 L46.642,54.015 L46.626,54.105 L46.522,54.256 L46.504,54.329 L46.51,54.404 L46.54,54.477 L46.38,54.52 L46.15,54.629 L45.945,54.762 L45.856,54.875 L45.849,54.969 L45.825,55.051 L45.784,55.127 L45.721,55.195 L45.682,55.22 L45.66,55.232 L45.648,55.251 L45.635,55.412 L45.611,55.441 L45.575,55.447 L45.534,55.487 L45.245,55.97 L45.136,56.101 L45.06,56.156 L44.982,56.197 L44.921,56.244 L44.866,56.426 L44.792,56.444 L44.687,56.43 L44.573,56.448 L44.505,56.492 L44.308,56.664 L43.576,57.018 L43.19,57.141 L43.132,57.143 L42.987,57.135 L42.446,57.194 L41.981,57.141 L41.858,57.207 L41.868,57.574 L41.877,57.619 L41.91,57.674 L41.969,57.617 L42.017,57.705 L41.858,58.002 L41.783,58.252 L41.674,58.408 L41.544,58.894 L41.468,59.072 L41.353,59.209 L41.089,59.453 L41.048,59.516 L40.97,59.707 L40.935,59.879 L40.797,60.166 L40.589,61.311 L40.425,61.662 L40.046,62.1 L39.997,62.278 L40.097,62.434 L40.336,62.492 L40.85,62.47 L41.058,62.425 L41.237,62.342 L40.917,62.599 L40.051,62.605 L39.892,62.642 L39.732,62.784 L39.176,63.628 L39.038,63.691 L38.842,63.963 L38.712,64.107 L38.588,64.17 L38.507,64.195 L38.434,64.261 L38.319,64.407 L38.258,64.508 L38.275,64.566 L38.425,64.674 L38.555,64.861 L38.59,65.031 L38.589,65.203 L38.613,65.392 L38.635,65.463 L38.672,65.526 L38.731,65.589 L38.826,65.662 L38.964,65.743 L39.01,65.788 L39.037,65.869 L38.668,65.649 L38.612,65.579 L38.518,65.518 L38.332,65.497 L38.199,65.546 L38.265,65.688 L38.407,65.887 L38.526,66.174 L38.548,66.45 L38.4,66.611 L38.378,66.211 L38.339,66.023 L38.073,65.611 L38.167,65.494 L38.359,65.412 L38.506,65.285 L38.517,65.105 L38.442,64.892 L38.314,64.713 L38.164,64.64 L37.966,64.623 L37.893,64.644 L37.792,64.72 L37.128,65.568 L36.997,65.656 L36.854,65.718 L36.577,66.022 L36.439,66.134 L36.155,66.24 L36.069,66.293 L35.969,66.378 L35.96,66.421 L35.989,66.475 L36.058,66.768 L36.251,67.04 L36.275,67.246 L36.1,67.055 L35.912,66.716 L35.698,66.452 L35.451,66.476 L35.15,66.655 L34.458,66.839 L34.146,66.983 L34.812,67.194 L35.113,67.362 L35.317,67.62 L35.177,67.499 L34.219,67.091 L34.013,67.07 L33.987,67.2 L33.819,67.146 L33.7,67.215 L33.59,67.327 L33.452,67.406 L33.515,67.478 L33.654,67.494 L33.718,67.564 L33.486,67.619 L32.71,67.619 L32.71,67.676 L33.416,67.897 L33.622,68.047 L33.771,68.235 L33.823,68.352 L33.795,68.479 L33.787,68.625 L33.776,68.687 L33.685,68.839 L33.669,68.9 L33.621,68.9 L33.568,68.74 L33.58,68.422 L33.558,68.259 L33.494,68.125 L33.398,67.998 L33.255,67.918 L33.089,67.854 L32.772,67.797 L32.434,67.902 L32.171,68.133 L32.023,68.469 L32.207,68.373 L32.379,68.17 L32.574,68.01 L32.824,68.045 L32.32,68.633 L32.229,68.615 L32.062,68.539 L31.973,68.522 L31.85,68.538 L31.744,68.575 L31.545,68.68 L31.358,68.742 L31.279,68.79 L31.22,68.9 L31.193,69.025 L31.223,69.075 L31.299,69.109 L31.411,69.191 L31.528,69.351 L31.577,69.496 L31.522,69.548 L31.327,69.432 L31.017,69.171 L30.863,69.145 L30.798,69.352 L30.698,69.473 L29.662,69.852 L29.494,69.953 L29.332,70.099 L29.283,70.269 L29.444,70.361 L29.704,70.396 L29.944,70.39 L30.144,70.357 L30.236,70.355 L30.316,70.39 L29.975,70.486 L29.827,70.507 L29.621,70.5 L29.185,70.443 L28.983,70.47 L28.825,70.607 L29.138,70.732 L29.29,70.828 L29.354,70.949 L29.365,71.193 L29.323,71.23 L29.196,71.134 L29.053,70.867 L28.948,70.766 L28.774,70.787 L28.657,70.888 L28.394,71.181 L28.269,71.242 L28.113,71.273 L27.711,71.506 L27.54,71.52 L27.227,71.47 L26.962,71.618 L26.65,71.681 L26.535,71.765 L26.483,71.927 L26.529,72.081 L26.633,72.226 L26.752,72.353 L26.7,72.353 L26.529,72.312 L26.459,72.183 L26.431,72.019 L26.378,71.876 L26.311,71.813 L26.244,71.8 L26.032,71.819 L25.958,71.839 L25.86,71.887 L25.776,71.95 L25.741,72.011 L25.65,72.124 L25.439,72.207 L25.047,72.302 L24.485,72.58 L24.332,72.621 L24.19,72.681 L23.896,72.939 L23.75,72.999 L23.674,73.018 L23.461,73.118 L23.403,73.159 L23.374,73.222 L23.39,73.279 L23.509,73.425 L23.688,73.71 L23.811,73.846 L23.962,73.903 L24.123,73.94 L24.534,74.132 L24.675,74.227 L24.491,74.237 L24.063,74.02 L23.852,73.96 L23.761,73.95 L23.647,73.915 L23.548,73.855 L23.344,73.423 L23.204,73.45 L22.709,73.641 L22.573,73.716 L22.424,73.823 L22.066,74 L21.598,74.342 L21.175,74.531 L20.733,74.633 L20.364,74.592 L20.204,74.469 L20.081,74.33 L19.949,74.277 L19.758,74.408 L19.69,74.431 L19.492,74.414 L19.385,74.459 L19.31,74.517 L19.15,74.6 L18.888,74.699 L18.6,74.747 L18.12,74.769 L17.965,74.8 L17.814,74.857 L17.973,74.948 L18.026,74.968 L17.937,74.996 L17.845,75.038 L17.757,75.092 L17.678,75.155 L17.615,75.249 L17.593,75.345 L17.588,75.427 L17.575,75.474 L17.319,75.712 L17.015,75.929 L16.53,76.166 L16.246,76.405 L16.1,76.469 L15.737,76.557 L15.737,76.61 L15.929,76.666 L16.02,76.76 L16.018,76.878 L15.926,77.013 L15.852,77.041 L15.155,77.041 L15.195,77.297 L15,77.475 L14.718,77.615 L14.492,77.76 L13.849,78.288 L13.666,78.477 L13.729,78.567 L13.774,78.68 L13.825,78.907 L13.812,79.114 L13.825,79.173 L13.866,79.228 L13.904,79.246 L13.943,79.253 L13.989,79.279 L14.197,79.439 L14.372,79.513 L14.414,79.544 L14.467,79.644 L14.487,79.762 L14.47,79.878 L14.414,79.968 L14.175,79.622 L14.072,79.542 L13.81,79.43 L13.466,79.204 L13.237,79.166 L13.009,79.234 L12.784,79.407 L12.73,79.439 L12.598,79.468 L12.548,79.49 L12.506,79.541 L12.443,79.649 L12.389,79.697 L11.977,79.783 L11.854,79.856 L11.79,79.965 L11.824,80.047 L12.023,80.178 L12.316,80.438 L12.447,80.492 L12.248,80.449 L12.102,80.393 L11.976,80.301 L11.83,80.153 L11.744,80.11 L11.661,80.141 L11.582,80.197 L11.435,80.253 L11.453,80.312 L11.538,80.416 L11.587,80.551 L11.792,80.712 L11.808,80.871 L11.747,81.008 L11.666,81.11 L11.6,81.225 L11.583,81.4 L11.444,81.324 L11.363,81.232 L11.343,81.119 L11.38,80.976 L11.451,80.866 L11.514,80.81 L11.535,80.756 L11.481,80.652 L11.233,80.482 L10.952,80.506 L10.724,80.681 L10.628,80.948 L10.648,81.041 L10.761,81.293 L10.817,81.375 L10.871,81.486 L10.87,81.609 L10.854,81.722 L10.875,81.8 L11.036,81.912 L11.058,81.958 L11.065,82.015 L11.082,82.076 L11.106,82.133 L11.141,82.175 L11.163,82.259 L11.029,82.276 L10.74,82.255 L10.792,82.109 L10.737,82.015 L10.644,81.935 L10.581,81.831 L10.589,81.758 L10.668,81.61 L10.688,81.537 L10.663,81.461 L10.608,81.401 L10.551,81.356 L10.528,81.321 L10.423,81.081 L10.168,81.094 L9.57,81.348 L9.611,81.386 L9.686,81.473 L9.729,81.507 L9.543,81.514 L9.397,81.535 L9.269,81.584 L8.882,81.818 L8.752,81.926 L8.717,82.035 L8.808,82.1 L9.743,82.487 L9.889,82.516 L9.781,82.602 L9.607,82.535 L9.414,82.42 L9.251,82.359 L9.044,82.318 L8.838,82.245 L8.639,82.201 L8.451,82.254 L8.347,82.376 L8.361,82.502 L8.452,82.632 L8.583,82.761 L8.747,82.836 L9.187,82.951 L9.304,83.049 L8.832,83.012 L8.715,83.049 L8.68,83.109 L8.702,83.265 L8.662,83.37 L8.572,83.304 L8.56,83.216 L8.572,83.113 L8.555,83.002 L8.263,82.65 L8.09,82.621 L7.904,82.751 L7.598,83.107 L7.79,83.117 L7.951,83.218 L8.234,83.479 L8.514,83.647 L8.557,83.694 L8.497,83.754 L8.376,83.754 L8.245,83.718 L8.157,83.668 L7.853,83.366 L7.667,83.27 L7.438,83.266 L7.263,83.348 L7.208,83.479 L7.23,83.827 L7.263,83.914 L7.406,84 L7.454,84.155 L7.523,84.309 L7.54,84.413 L7.675,84.468 L8.305,84.422 L8.504,84.385 L8.8,84.285 L9.091,84.282 L9.091,84.292 L9.025,84.327 L8.98,84.411 L8.966,84.557 L8.988,84.594 L9.062,84.674 L9.169,84.733 L9.441,84.723 L9.566,84.75 L9.481,84.854 L9.341,84.895 L9.179,84.891 L9.035,84.856 L8.927,84.788 L8.79,84.6 L8.711,84.537 L8.568,84.527 L7.778,84.693 L7.647,84.748 L7.54,84.855 L8.322,85.409 L8.724,85.779 L8.768,86.031 L8.716,85.995 L8.614,85.957 L8.556,85.926 L8.536,85.955 L8.503,85.975 L8.363,85.712 L8.311,85.529 L8.232,85.465 L8.135,85.419 L7.924,85.284 L7.87,85.324 L7.839,85.426 L7.785,85.526 L7.685,85.61 L7.59,85.648 L7.327,85.662 L7.257,85.629 L7.34,85.557 L7.539,85.448 L7.612,85.345 L7.626,85.27 L7.595,85.202 L7.54,85.127 L7.319,84.967 L7.109,84.981 L6.891,85.053 L6.643,85.074 L6.671,85 L6.721,84.941 L6.784,84.892 L6.855,84.855 L6.531,84.744 L6.386,84.646 L6.324,84.513 L6.25,84.486 L6.082,84.579 L5.818,84.779 L5.711,84.906 L5.667,85.004 L5.691,85.09 L5.792,85.18 L5.93,85.25 L6.236,85.359 L6.379,85.445 L6.474,85.263 L6.596,85.332 L6.715,85.522 L6.804,85.707 L6.468,85.651 L6.093,85.475 L5.715,85.364 L5.368,85.494 L5.289,85.616 L5.15,86.083 L4.862,86.525 L4.86,86.645 L4.956,86.788 L5.019,86.819 L5.155,86.828 L5.244,86.821 L5.411,86.788 L5.499,86.78 L5.926,86.61 L6.566,86.52 L7.598,86.133 L7.531,86.33 L7.303,86.451 L6.802,86.562 L6.896,86.646 L7.013,86.675 L7.274,86.671 L7.106,86.783 L6.894,86.772 L6.485,86.669 L6.257,86.7 L5.866,86.846 L5.658,86.88 L5.478,86.93 L5.392,87.057 L5.385,87.229 L5.447,87.417 L5.576,87.442 L6.325,87.364 L6.204,87.436 L5.791,87.522 L5.656,87.588 L5.563,87.671 L5.42,87.896 L5.599,87.939 L6.325,87.791 L6.882,87.838 L7.002,87.825 L7.334,87.732 L7.236,87.894 L7.071,87.986 L6.696,88.103 L6.543,88.183 L6.468,88.234 L6.402,88.295 L6.315,88.344 L6.209,88.348 L5.979,88.323 L5.768,88.346 L5.354,88.455 L5.154,88.48 L4.669,88.482 L4.44,88.529 L4.248,88.642 L4.19,88.586 L4.248,88.533 L3.714,88.533 L3.21,88.586 L3.082,88.662 L3.031,88.842 L3.029,89.54 L3.07,89.693 L3.081,89.8 L3.05,89.891 L3.051,89.953 L3.092,90.051 L3.152,90.144 L3.21,90.183 L3.27,90.154 L3.452,90.011 L3.555,89.967 L4.292,89.814 L4.408,89.73 L4.436,89.652 L4.646,89.412 L4.693,89.378 L4.837,89.305 L4.847,89.262 L4.872,89.207 L4.907,89.154 L4.939,89.12 L5.01,89.066 L5.095,89.015 L5.184,89.003 L5.261,89.066 L5.246,89.125 L5.177,89.207 L4.753,89.57 L4.775,89.621 L4.895,89.663 L5.043,89.691 L5.15,89.699 L5.421,89.636 L5.686,89.544 L5.557,89.721 L5.354,89.789 L4.885,89.867 L4.668,89.965 L4.52,90.082 L4.434,90.251 L4.407,90.5 L4.284,90.445 L4.216,90.505 L4.188,90.629 L4.19,90.764 L4.751,90.68 L4.998,90.578 L5.101,90.335 L5.187,90.393 L5.187,90.457 L5.154,90.518 L5.149,90.557 L5.216,90.624 L5.237,90.627 L5.252,90.596 L5.494,90.41 L5.525,90.392 L5.54,90.318 L5.516,90.267 L5.498,90.211 L5.525,90.121 L5.641,90.02 L5.822,89.949 L6.162,89.86 L6.633,89.66 L6.802,89.643 L6.802,89.692 L6.61,89.775 L6.257,89.98 L6.029,90.021 L5.867,90.087 L5.745,90.245 L5.525,90.606 L5.26,90.875 L4.964,91.111 L4.884,91.154 L4.664,91.222 L4.62,91.271 L4.655,91.345 L4.885,91.564 L5.324,91.789 L5.843,91.853 L6.908,91.832 L7.439,91.935 L7.572,91.937 L7.704,91.92 L7.837,91.918 L8.333,92.082 L8.422,92.097 L8.452,92.121 L8.485,92.168 L8.529,92.198 L8.583,92.176 L8.63,92.146 L8.694,92.125 L8.82,92.1 L8.989,92.108 L9.307,92.194 L9.461,92.207 L9.574,92.176 L9.811,92.072 L9.937,92.044 L10.202,92.059 L10.319,92.036 L10.42,91.94 L10.465,91.825 L10.481,91.721 L10.513,91.615 L10.603,91.493 L10.63,91.433 L10.638,91.306 L10.685,91.249 L10.748,91.233 L11.635,91.301 L11.749,91.322 L12.115,91.488 L12.271,91.525 L12.586,91.546 L12.703,91.617 L12.704,91.772 L12.897,91.996 L13.295,92.364 L13.222,92.458 L13.128,92.505 L13.022,92.535 L12.914,92.581 L13.008,92.635 L13.189,92.71 L13.266,92.762 L13.375,92.908 L13.445,92.978 L13.532,93.004 L13.603,93.08 L13.679,93.133 L13.768,93.159 L13.813,93.143 L13.932,93.071 L13.984,93.051 L14.045,93.059 L14.154,93.1 L14.234,93.121 L14.327,93.131 L14.419,93.11 L14.461,93.028 L14.527,92.955 L14.675,92.953 L14.911,92.977 L15.008,92.951 L15.14,92.981 L15.278,93.028 L15.39,93.051 L15.409,93.01 L15.383,92.918 L15.387,92.828 L15.497,92.787 L16.259,92.693 L16.478,92.732 L16.606,92.831 L17.022,93.366 L17.185,93.687 L17.274,93.791 L17.432,93.804 L17.583,93.693 L17.66,93.51 L17.597,93.316 L17.794,93.314 L17.938,93.499 L17.992,93.751 L17.92,93.957 L17.513,94.193 L17.464,94.247 L17.426,94.191 L17.426,94.157 L17.413,94.136 L17.331,94.117 L17.247,94.113 L17.009,94.164 L17.024,94.254 L17.058,94.322 L17.115,94.365 L17.319,94.414 L17.367,94.486 L17.381,94.56 L17.408,94.591 L17.582,94.65 L17.864,94.89 L18.077,94.914 L17.985,94.774 L17.749,94.563 L17.701,94.406 L17.767,94.27 L17.925,94.293 L18.236,94.43 L18.913,94.419 L19.137,94.482 L19.315,94.616 L19.177,94.66 L18.953,94.631 L18.872,94.542 L18.779,94.52 L18.501,94.516 L18.392,94.542 L18.327,94.576 L18.283,94.614 L18.184,94.748 L19.523,94.844 L19.939,94.748 L19.911,94.725 L19.861,94.666 L19.833,94.643 L19.934,94.563 L19.888,94.503 L19.788,94.434 L19.726,94.326 L20.115,94.336 L20.31,94.367 L20.464,94.43 L20.36,94.469 L20.252,94.483 L20.158,94.508 L20.093,94.589 L20.36,94.592 L21.156,94.483 L21.383,94.424 L21.49,94.424 L21.534,94.512 L21.546,94.589 L21.741,95.076 L21.832,95.169 L21.975,95.184 L22.228,95.178 L22.444,95.229 L22.71,95.3221 L22.973,95.3711 L23.182,95.2851 L23.208,95.1881 L23.186,95.0911 L23.188,95.0241 L23.288,95.0141 L23.341,95.0531 L23.394,95.1271 L23.475,95.1981 L23.614,95.23 L23.848,95.23 L23.896,95.2111 L23.917,95.175 L23.932,95.138 L24.028,95.081 L24.022,94.907 L24.093,94.852 L24.204,94.873 L24.224,94.963 L24.195,95.118 L24.297,95.188 L24.4,95.203 L24.672,95.177 L24.765,95.156 L24.858,95.109 L25.017,94.988 L25.123,94.938 L25.26,94.928 L25.527,94.962 L25.576,94.979 L25.739,95.069 L25.882,94.889 L26.121,94.901 L26.383,94.957 L26.592,94.91 L26.55,94.875 L26.473,94.783 L26.43,94.746 L26.839,94.576 L26.939,94.511 L27.1,94.459 L27.318,94.497 L27.519,94.558 L27.629,94.564 L27.886,94.413 L28.164,94.338 L28.408,94.223 L28.564,93.953 L27.939,93.932 L27.817,93.897 L27.943,93.873 L28.167,93.804 L28.3,93.791 L28.431,93.81 L28.693,93.881 L28.827,93.898 L28.89,93.874 L29.07,93.766 L29.29,93.709 L29.326,93.629 L29.306,93.422 L29.411,93.016 L29.68,92.756 L30.755,92.223 L30.901,92.104 L31.035,91.963 L31.202,91.818 L31.396,91.732 L31.805,91.615 L31.969,91.539 L32.144,91.421 L32.283,91.274 L32.341,91.11 L32.357,91.039 L32.426,90.895 L32.451,90.664 L32.479,90.574 L32.602,90.393 L33.052,89.934 L33.629,89.639 L34.292,89.481 L35.898,89.365 L35.917,89.322 L35.914,89.268 L35.955,89.215 L36.036,89.17 L36.066,89.16 L36.225,89.167 L36.389,89.156 L36.506,89.117 L36.575,89.015 L36.6,88.588 L36.57,88.468 L36.49,88.371 L36.408,88.475 L36.32,88.512 L36.222,88.531 L36.114,88.582 L36.021,88.675 L35.904,88.853 L35.797,88.924 L35.445,89.021 L35.209,89.167 L34.928,89.219 L34.783,89.274 L34.857,89.141 L35.147,89.006 L35.244,88.809 L35.321,88.781 L35.41,88.768 L35.477,88.748 L35.536,88.699 L35.685,88.531 L35.839,88.472 L36.218,88.418 L36.355,88.345 L36.351,88.241 L36.195,88.159 L35.99,88.087 L35.849,88 L35.744,88.089 L35.645,88.079 L35.541,88.029 L35.424,88 L35.354,87.996 L35.322,87.978 L35.314,87.939 L35.314,87.866 L35.326,87.797 L35.363,87.793 L35.415,87.807 L35.478,87.788 L35.638,87.689 L35.735,87.646 L35.823,87.627 L35.883,87.585 L36.066,87.306 L35.89,87.286 L35.775,87.211 L35.772,87.13 L35.928,87.091 L36.207,87.099 L36.307,87.071 L36.436,86.982 L36.366,86.833 L36.34,86.755 L36.33,86.67 L36.463,86.741 L36.568,86.75 L36.662,86.704 L36.755,86.612 L36.698,86.423 L36.86,86.301 L37.075,86.197 L37.184,86.054 L37.165,85.955 L37.136,85.871 L37.138,85.785 L37.209,85.681 L37.498,85.441 L37.512,85.261 L37.377,85.171 L37.269,85.073 L37.364,84.878 L37.468,84.715 L37.652,84.162 L38.072,83.515 L38.933,82.884 L39.457,82.183 L39.449,82.091 L39.252,81.986 L37.307,81.466 L39.31,81.824 L39.566,81.815 L39.721,81.735 L39.803,81.579 L39.867,81.117 L39.874,80.864 L39.8,80.682 L39.577,80.655 L39.653,80.559 L39.758,80.518 L39.851,80.459 L39.891,80.313 L39.88,80.178 L39.789,79.805 L39.789,79.22 L39.749,78.953 L39.578,78.799 L39.804,78.703 L39.867,78.687 L39.957,78.655 L39.982,78.58 L39.984,78.493 L40.002,78.422 L40.225,78.229 L40.33,78.117 L40.373,77.971 L40.372,77.528 L40.402,77.438 L40.823,76.877 L40.848,76.802 L40.797,76.739 L40.642,76.669 L40.442,76.622 L39.789,76.609 L39.995,76.525 L40.641,76.556 L40.765,76.585 L40.889,76.638 L41.009,76.663 L41.121,76.608 L41.274,76.651 L41.464,76.572 L41.939,76.204 L42.033,76.149 L42.235,76.096 L42.174,76.028 L41.975,75.924 L41.836,75.814 L41.698,75.658 L41.59,75.48 L41.548,75.312 L41.483,75.158 L41.328,75.037 L41.151,74.928 L41.018,74.809 L41.028,74.723 L41.201,74.752 L41.421,74.842 L41.653,74.994 L41.856,75.05 L41.944,75.1 L42.091,75.233 L42.233,75.391 L42.396,75.662 L42.473,75.831 L42.632,75.82 L42.718,75.796 L42.925,75.688 L43.144,75.639 L43.231,75.581 L43.313,75.511 L43.408,75.446 L43.528,75.414 L43.815,75.366 L44.391,75.077 L44.457,74.956 L44.367,74.166 L44.443,74.253 L44.46,74.34 L44.459,74.435 L44.473,74.541 L44.613,74.794 L44.632,74.89 L44.735,75.038 L44.968,75.01 L46.468,74.219 L47.276,73.943 L47.436,73.84 L47.501,73.664 L47.212,73.45 L46.97,73.157 L46.778,72.843 L46.637,72.689 L46.468,72.626 L46.265,72.6 L45.832,72.452 L45.414,72.173 L45.242,71.997 L47.052,72.663 L47.478,72.974 L47.982,73.531 L48.092,73.597 L48.183,73.613 L48.83,73.538 L48.913,73.507 L49.007,73.414 L49.028,73.374 L49.01,73.329 L48.991,73.216 L48.993,73.026 L49.025,72.797 L49.099,72.603 L49.23,72.523 L49.448,72.488 L49.65,72.427 L49.849,72.402 L50.056,72.474 L50.12,72.529 L50.213,72.639 L50.267,72.683 L50.402,72.721 L50.648,72.695 L50.747,72.713 L50.96,72.817 L51.02,72.877 L50.907,72.901 L50.787,72.912 L49.618,73.207 L49.409,73.229 L49.313,73.264 L49.238,73.323 L49.207,73.4 L49.275,73.429 L49.589,73.392 L50.271,73.214 L50.722,73.179 L50.937,73.099 L51.572,73.032 L51.784,72.958 L51.92,72.95 L51.772,73.096 L51.778,73.2 L52.08,73.428 L52.246,73.586 L52.34,73.641 L52.519,73.6 L52.697,73.755 L52.804,73.799 L53.312,73.799 L53.494,73.826 L53.519,73.808 L53.273,73.527 L53.191,73.32 L53.2,73.107 L53.312,72.898 L53.21,72.83 L53.189,72.74 L53.242,72.662 L53.363,72.629 L53.462,72.666 L53.468,72.762 L53.453,72.877 L53.495,72.977 L53.585,73.08 L53.595,73.14 L53.573,73.204 L53.573,73.323 L53.604,73.426 L53.705,73.603 L53.737,73.703 L53.801,73.65 L53.869,73.623 L53.937,73.637 L54,73.703 L54.004,73.65 L54.055,73.484 L54.196,73.508 L54.387,73.323 L54.483,73.428 L54.581,73.237 L54.644,73.016 L54.665,72.791 L54.64,72.581 L54.619,72.542 L54.555,72.463 L54.534,72.416 L54.546,72.379 L54.573,72.324 L54.594,72.261 L54.586,72.198 L54.491,72.1 L54.381,72.037 L54.291,71.959 L54.26,71.82 L54.167,71.859 L53.947,72.037 L53.916,71.932 L53.828,71.866 L53.711,71.832 L53.596,71.821 L53.494,71.858 L53.428,71.94 L53.374,72.031 L53.307,72.092 L53.2,72.111 L53.173,72.064 L53.195,71.849 L53.181,71.72 L53.136,71.652 L52.931,71.56 L52.859,71.755 L52.825,71.954 L52.791,71.981 L52.721,71.917 L52.647,71.808 L52.614,71.691 L52.491,71.673 L52.212,71.671 L51.923,71.726 L51.763,71.878 L51.591,71.837 L51.374,71.81 L51.286,71.751 L51.493,71.613 L51.722,71.555 L52.236,71.53 L52.457,71.458 L51.982,71.362 L51.861,71.3 L51.798,71.194 L51.835,71.141 L51.927,71.155 L52.025,71.243 L52.041,71.12 L51.818,70.659 L51.677,70.177 L51.603,70.021 L51.243,70.218 L50.88,70.357 L50.059,70.5 L48.996,70.295 L50.017,70.311 L50.543,70.248 L51.015,70.124 L51.103,70.076 L51.332,69.912 L51.444,69.898 L51.709,69.902 L51.763,69.853 L51.777,69.443 L51.808,69.248 L51.863,69.059 L50.937,69.114 L49.869,68.88 L51.461,68.96 L51.606,68.944 L51.727,68.903 L51.782,68.85 L51.823,68.787 L52.008,68.578 L52.187,68.255 L52.295,68.102 L52.894,67.785 L53.1,67.59 L53.358,67.5 L54.405,67.311 L54.78,67.096 L54.848,67.041 L54.88,66.975 L54.907,66.887 L54.951,66.811 L55.273,66.688 L55.492,66.665 L55.577,66.644 L55.916,66.49 L55.986,66.437 L56.017,66.378 L56.037,66.273 L56.087,66.232 L56.157,66.207 L56.228,66.141 L56.285,66.045 L56.291,66 L56.279,65.959 L56.282,65.87 L56.245,65.719 L56.262,65.639 L56.506,65.548 L56.652,65.41 L56.769,65.243 L56.855,64.972 L57.458,64.009 L57.416,63.99 L57.385,63.971 L57.35,63.956 L57.294,63.954 L57.294,63.895 L57.637,63.762 L57.821,63.479 L57.942,63.136 L58.096,62.839 L58.503,62.468 L58.602,62.409 L58.684,62.386 L58.848,62.276 L58.95,62.253 L59.067,62.269 L59.155,62.312 L59.315,62.47 L59.374,62.419 L59.427,62.358 L59.372,62.286 L59.239,62.164 L59.21,62.095 L59.224,61.967 L59.281,61.904 L59.363,61.861 L59.453,61.8 L59.484,61.755 L59.56,61.617 L59.669,61.622 L59.726,61.612 L59.769,61.588 L60.01,61.294 L60.176,61.176 L60.527,61.008 L60.677,60.898 L60.826,60.693 L60.973,60.547 L60.989,60.51 L60.702,60.265 L60.565,60.176 L60.468,60.06 L60.434,59.832 L60.456,59.758 L60.512,59.773 L60.567,59.842 L60.591,59.935 L60.606,60.07 L60.653,60.144 L60.733,60.189 L61.075,60.299 L61.168,60.262 L61.185,60.121 L61.181,59.885 L61.226,59.73 L61.331,59.551 L61.556,59.271 L63.06,58.068 L63.197,57.918 L63.75,57.125 L63.794,56.936 L63.648,56.979 L63.452,56.961 L63.279,56.883 L63.2,56.742 L63.157,56.691 L62.993,56.265 L62.986,56.181 L62.84,56.179 L62.656,56.279 L62.4,56.475 L62.316,56.505 L61.795,56.594 L61.714,56.6 L61.71,56.58 L61.874,56.501 L62.341,56.35 L62.559,56.237 L62.778,56.063 L62.877,55.914 L62.856,55.752 L62.43,55.199 L62.321,55.129 L62.342,55.249 L62.413,55.406 L62.453,55.442 L62.415,55.598 L62.329,55.619 L62.246,55.577 L62.217,55.547 L62.243,55.498 L62.209,55.394 L62.113,55.3 L61.968,55.278 L62.019,55.149 L62.004,55.036 L61.923,54.8 L61.914,54.654 L61.949,54.558 L62.135,54.37 L62.281,54.162 L62.402,53.938 L62.552,53.745 L62.775,53.628 L62.722,53.739 L62.827,53.76 L62.989,53.638 L63.067,53.658 L63.048,53.705 L62.917,53.873 L62.878,53.952 L62.995,53.927 L63.178,53.813 L63.42,53.764 L63.475,53.703 L63.501,53.626 L63.539,53.552 L63.616,53.479 L63.767,53.372 L63.829,53.317 L63.949,53.134 L64.044,52.94 L63.727,53.128 L63.563,53.184 M60.162,50.257 L60.055,50.187 L59.963,50.096 L59.846,50.011 L59.8,50.097 L59.785,50.194 L59.8,50.292 L59.846,50.38 L59.869,50.351 L59.951,50.274 L59.992,50.361 L59.986,50.44 L59.935,50.501 L59.845,50.539 L59.832,50.57 L59.83,50.595 L59.822,50.622 L59.791,50.649 L59.892,50.692 L60.004,50.686 L60.117,50.649 L60.215,50.594 L60.237,50.561 L60.26,50.504 L60.292,50.453 L60.346,50.43 L60.535,50.377 L60.582,50.34 L60.672,50.242 L60.719,50.223 L60.875,50.231 L60.906,50.223 L60.955,50.133 L60.984,49.932 L61.006,49.852 L61.04,49.81 L61.151,49.704 L61.195,49.684 L61.231,49.66 L61.217,49.608 L61.168,49.529 L61.244,49.328 L61.271,49.22 L61.273,49.11 L61.246,49 L61.207,49.047 L61.123,49.268 L61.051,49.355 L60.981,49.417 L60.805,49.533 L61.071,49.533 L60.951,49.615 L60.707,49.675 L60.645,49.75 L60.608,49.623 L60.629,49.483 L60.623,49.367 L60.512,49.321 L60.446,49.354 L60.407,49.427 L60.377,49.533 L60.294,49.516 L60.273,49.452 L60.263,49.39 L60.219,49.379 L60.177,49.447 L60.078,49.743 L60.059,49.856 L60.08,49.984 L60.143,50.086 L60.227,50.166 L60.324,50.228 L60.324,50.276 L60.162,50.257 M5.705,88.184 L5.898,88.184 L6.213,88.09 L6.244,88.067 L6.238,88.022 L6.2,87.986 L5.73,87.954 L5.64,87.988 L5.567,88.051 L5.567,88.095 L5.622,88.116 L5.587,88.144 L5.705,88.184 M64.624,52.16 L64.605,52.101 L64.476,52.085 L64.373,52.118 L64.285,52.181 L64.182,52.236 L64.043,52.245 L64.094,52.331 L64.172,52.383 L64.266,52.393 L64.365,52.352 L64.371,52.495 L64.245,52.624 L64.072,52.672 L63.938,52.569 L63.54,52.913 L63.47,52.948 L63.282,52.934 L63.2,52.939 L63.174,52.951 L63.092,53.014 L63.053,53.045 L63.05,53.045 L63.045,53.046 L63.051,53.046 L63.446,53.063 L63.567,53.046 L63.643,53.006 L63.836,52.875 L63.941,52.834 L64.08,52.829 L64.223,52.84 L64.364,52.832 L64.477,52.775 L64.53,52.685 L64.578,52.453 L64.64,52.351 L64.613,52.247 L64.624,52.16 M68.469,50.389 L68.762,50.133 L68.895,49.943 L68.878,49.902 L68.809,49.876 L68.766,49.882 L68.707,49.889 L68.665,49.91 L68.592,50.047 L68.551,50.096 L68.313,50.284 L68.285,50.322 L68.266,50.365 L68.293,50.405 L68.344,50.421 L68.469,50.389 M96.85,25.488 L96.68,25.347 L96.557,25.268 L96.442,25.226 L96.344,25.211 L96.106,25.214 L96.004,25.189 L95.858,25.08 L95.758,25.055 L95.487,25.056 L95.356,25.042 L95.227,25.002 L95.141,24.947 L94.996,24.826 L94.902,24.79 L94.902,24.736 L95.008,24.653 L94.908,24.589 L94.727,24.544 L92.815,24.469 L92.51,24.418 L92.6,24.54 L92.639,24.626 L92.613,24.701 L92.51,24.789 L92.364,24.84 L92.017,24.869 L91.9,24.921 L91.716,25.145 L91.612,25.232 L91.471,25.266 L91.315,25.275 L90.54,25.453 L90.49,25.51 L90.47,25.6 L90.42,25.67 L90.304,25.777 L90.215,25.914 L90.127,26.197 L90.004,26.335 L89.683,26.474 L89.634,26.522 L89.611,26.597 L89.482,26.787 L89.484,26.986 L89.451,27.055 L89.371,27.139 L89.135,27.3 L88.534,27.595 L88.392,27.695 L88.205,27.787 L87.511,27.827 L87.279,27.875 L87.193,27.88 L87.138,27.904 L87.138,27.96 L87.144,28.015 L87.114,28.039 L87.068,28.053 L87.033,28.079 L86.999,28.091 L86.951,28.065 L86.867,27.949 L86.849,27.933 L86.338,27.933 L86.238,27.893 L86.174,27.835 L86.1,27.801 L85.969,27.827 L86.026,27.908 L86.061,28.015 L86.04,28.109 L85.939,28.15 L85.828,28.135 L85.728,28.098 L85.369,27.896 L85.322,27.847 L85.408,27.826 L85.863,27.826 L85.57,27.698 L84.847,27.621 L84.422,27.406 L83.896,27.344 L83.427,27.201 L82.937,27.137 L82.624,27.016 L81.072,26.119 L80.978,26.171 L80.924,26.148 L80.892,26.098 L80.855,26.067 L80.623,26.067 L80.527,26.034 L80.34,25.888 L80.25,25.855 L80.024,25.813 L79.555,25.631 L79.344,25.59 L79.153,25.502 L78.881,25.107 L78.73,25.001 L78.626,25.031 L78.667,25.14 L78.841,25.371 L78.946,25.747 L78.831,25.757 L78.708,25.787 L78.61,25.79 L78.571,25.721 L78.574,25.589 L78.563,25.494 L78.52,25.424 L78.416,25.371 L78.267,25.352 L78.215,25.414 L78.176,25.495 L78.066,25.535 L77.986,25.491 L77.922,25.408 L77.844,25.362 L77.725,25.429 L77.649,25.315 L77.604,25.202 L77.54,25.11 L77.4,25.057 L77.373,25.073 L77.344,25.112 L77.303,25.151 L77.241,25.169 L77.103,25.164 L77.064,25.148 L77.025,25.111 L77.011,25.073 L76.976,24.899 L76.988,24.872 L77.017,24.83 L77.038,24.783 L77.024,24.739 L76.991,24.724 L76.911,24.711 L76.87,24.686 L76.849,24.688 L76.811,24.7 L76.764,24.691 L76.711,24.633 L76.698,24.577 L76.709,24.518 L76.732,24.464 L76.758,24.42 L76.722,24.389 L76.652,24.303 L76.605,24.257 L76.967,24.202 L77.168,24.21 L77.319,24.286 L77.426,24.386 L77.555,24.482 L77.826,24.634 L77.583,24.704 L77.503,24.739 L77.633,24.837 L77.751,24.853 L77.866,24.838 L77.984,24.846 L78.079,24.885 L78.355,25.058 L78.325,24.925 L78.232,24.827 L78.009,24.66 L77.943,24.566 L77.823,24.336 L77.745,24.233 L77.639,24.143 L77.508,24.059 L77.366,23.988 L77.238,23.944 L76.925,23.904 L76.852,23.853 L76.916,23.731 L76.979,23.721 L77.038,23.765 L77.077,23.78 L77.08,23.679 L77.051,23.614 L76.943,23.546 L76.92,23.49 L76.887,23.376 L76.744,23.134 L76.711,23.011 L76.682,22.7 L76.606,22.396 L76.533,22.254 L76.442,22.181 L76.176,22.081 L76.281,21.993 L76.27,21.86 L76.211,21.69 L76.176,21.496 L76.235,21.496 L76.27,21.581 L76.315,21.657 L76.374,21.719 L76.449,21.761 L76.412,21.659 L76.422,21.433 L76.396,21.337 L76.331,21.309 L76.227,21.295 L76.151,21.269 L76.157,21.205 L76.289,21.029 L76.403,20.824 L76.426,20.629 L76.287,20.484 L76.236,20.547 L76.148,20.629 L76.064,20.672 L76.025,20.618 L76.058,20.537 L76.121,20.452 L76.17,20.369 L76.153,20.292 L76.151,20.248 L76.176,20.001 L76.129,19.63 L76.098,19.527 L76.065,19.465 L75.942,19.338 L75.908,19.255 L75.919,19.054 L75.89,18.969 L75.713,18.85 L75.396,18.905 L75.226,18.834 L75.123,18.939 L75.185,19.183 L75.062,19.263 L75.07,19.349 L75.007,19.352 L74.913,19.303 L74.827,19.234 L74.806,19.171 L74.833,19.114 L74.839,19.058 L74.746,18.997 L74.86,18.834 L74.983,18.698 L75.081,18.634 L75.28,18.569 L75.382,18.515 L75.533,18.288 L75.571,18.25 L75.789,18.273 L75.869,18.247 L75.913,18.144 L75.895,18.016 L75.815,18.024 L75.711,18.072 L75.623,18.06 L75.519,17.969 L75.42,17.932 L75.312,17.939 L75.17,17.981 L74.978,18.108 L74.866,18.153 L74.769,18.116 L74.685,18.062 L74.576,18.047 L74.478,18.074 L74.422,18.145 L74.47,18.153 L74.581,18.193 L74.268,18.391 L74.159,18.37 L74.104,18.145 L74.128,18.066 L74.177,17.99 L74.204,17.909 L74.154,17.821 L74.068,17.8 L73.845,17.827 L73.755,17.796 L73.71,17.707 L73.733,17.64 L73.811,17.625 L73.911,17.691 L73.994,17.725 L74.015,17.623 L73.994,17.426 L73.934,17.222 L73.794,17.186 L73.618,17.183 L73.458,17.077 L73.626,16.924 L73.639,16.725 L73.55,16.529 L73.409,16.383 L73.205,16.569 L73.126,16.56 L72.966,16.436 L72.903,16.407 L72.875,16.383 L72.858,16.359 L72.827,16.297 L72.778,16.227 L72.746,16.164 L72.697,16.125 L72.438,16.17 L72.246,16.142 L72.09,16.142 L72.027,16.252 L72.049,16.551 L72.087,16.678 L72.153,16.782 L72.283,16.878 L72.571,16.966 L72.71,17.028 L72.853,17.189 L72.874,17.209 L72.907,17.277 L72.983,17.303 L73.073,17.315 L73.137,17.341 L73.175,17.517 L73.075,17.705 L73.017,17.912 L73.193,18.146 L73.146,18.224 L73.15,18.304 L73.189,18.384 L73.243,18.459 L73.282,18.422 L73.407,18.353 L73.443,18.544 L73.314,18.635 L72.923,18.724 L72.972,18.74 L73.017,18.762 L73.071,18.78 L73.136,18.781 L73.086,18.859 L73.005,18.893 L72.907,18.911 L72.813,18.941 L72.917,18.988 L73.038,19.003 L73.292,18.998 L73.178,19.13 L73.008,19.131 L72.821,19.104 L72.657,19.152 L72.755,19.225 L72.796,19.304 L72.821,19.387 L72.868,19.47 L72.948,19.541 L73.144,19.655 L73.239,19.731 L73.312,19.821 L73.367,19.912 L73.553,20.391 L73.585,20.454 L73.624,20.551 L73.615,20.96 L73.638,21.072 L73.773,21.307 L73.791,21.405 L73.864,21.613 L73.894,21.859 L73.941,21.974 L74.023,22.056 L74.144,22.082 L74.001,22.156 L73.862,22.138 L73.76,22.046 L73.717,21.892 L73.723,21.718 L73.7,21.636 L73.637,21.601 L73.529,21.617 L73.488,21.657 L73.463,21.708 L73.402,21.759 L73.1,21.876 L72.746,21.949 L72.399,21.94 L72.119,21.812 L72,21.694 L71.881,21.548 L71.79,21.381 L71.754,21.203 L71.853,20.661 L71.861,20.483 L71.84,20.369 L71.803,20.277 L71.746,20.201 L71.473,19.926 L71.41,19.895 L71.32,19.87 L71.152,19.757 L71.073,19.732 L71.004,19.745 L70.751,19.843 L70.711,19.832 L70.67,19.801 L70.622,19.784 L70.439,19.886 L70.308,19.922 L70.222,19.97 L70.125,20.002 L70.006,19.976 L69.906,19.841 L69.995,19.486 L69.901,19.308 L69.737,19.254 L69.491,19.232 L69.307,19.268 L69.338,19.398 L69.466,19.587 L69.367,19.645 L69.169,19.652 L68.993,19.69 L69.006,19.487 L68.945,19.309 L68.777,18.943 L68.724,18.943 L68.511,19.791 L68.437,19.878 L68.384,19.887 L68.34,19.833 L68.297,19.733 L68.263,19.585 L68.302,19.517 L68.379,19.466 L68.457,19.373 L68.481,19.139 L68.311,19.051 L67.824,19.05 L67.466,18.986 L67.345,19.002 L67.244,19.045 L67.161,19.105 L67.09,19.179 L67.025,19.267 L66.972,19.209 L66.957,19.291 L66.964,19.398 L66.954,19.492 L66.891,19.533 L66.794,19.489 L66.76,19.384 L66.751,19.052 L66.754,19.008 L66.719,18.978 L66.596,18.918 L66.555,18.856 L66.63,18.795 L66.741,18.736 L66.81,18.68 L66.675,18.652 L66.4,18.686 L66.336,18.681 L66.336,18.628 L66.464,18.514 L66.587,18.446 L66.862,18.334 L66.974,18.334 L67.084,18.547 L67.233,18.575 L67.197,18.641 L67.192,18.699 L67.221,18.747 L67.284,18.786 L67.488,18.697 L67.599,18.727 L67.7,18.801 L67.868,18.84 L67.403,17.673 L67.284,17.481 L67.126,17.347 L67.45,17.448 L67.577,17.458 L67.765,17.4 L68.124,17.232 L68.161,17.19 L68.077,17.135 L67.985,17.136 L67.654,17.241 L67.44,17.229 L67.334,17.204 L67.257,17.161 L67.156,17.077 L67.12,17.055 L67.124,16.896 L67.103,16.791 L67.017,16.654 L67.019,16.551 L67.066,16.498 L67.226,16.415 L67.284,16.335 L67.224,16.278 L67.161,16.233 L67.1,16.2 L67.026,16.18 L67.026,16.122 L67.203,16.114 L67.222,15.982 L67.08,15.639 L67.28,15.705 L67.403,15.859 L67.561,16.228 L67.594,16.103 L67.612,15.964 L67.596,15.831 L67.471,15.624 L67.364,15.304 L67.344,15.196 L67.475,15.177 L68.117,15.204 L68.352,15.172 L68.164,15.125 L67.947,15.101 L67.773,15.045 L67.712,14.902 L67.728,14.817 L67.75,14.81 L67.781,14.822 L67.821,14.796 L67.826,14.81 L67.844,14.827 L67.869,14.836 L67.897,14.823 L67.918,14.789 L67.901,14.774 L67.877,14.765 L67.871,14.744 L67.918,14.64 L67.912,14.596 L67.712,14.528 L67.39,14.348 L67.14,14.119 L66.705,13.574 L66.567,13.449 L66.453,13.373 L66.372,13.28 L66.335,13.096 L66.356,13.012 L66.397,12.945 L66.41,12.874 L66.335,12.773 L66.25,12.734 L66.054,12.734 L65.96,12.72 L65.814,12.657 L65.465,12.447 L65.37,12.35 L65.356,12.21 L65.367,12.01 L65.338,11.821 L65.211,11.71 L65.388,11.569 L65.521,11.415 L65.551,11.262 L65.424,11.126 L65.255,11.079 L64.742,11.023 L64.6,11.043 L64.541,11.128 L64.5,11.225 L64.434,11.29 L64.315,11.274 L64.258,11.213 L64.237,11.118 L64.249,11.015 L64.289,10.937 L64.315,10.805 L64.278,10.384 L64.315,10.214 L64.399,10.297 L64.461,10.382 L64.502,10.476 L64.526,10.585 L64.522,10.727 L64.497,10.79 L64.515,10.806 L64.64,10.803 L64.673,10.777 L64.715,10.668 L64.769,10.644 L64.818,10.661 L64.898,10.732 L64.953,10.744 L65.062,10.72 L65.265,10.651 L65.38,10.644 L65.37,10.769 L65.594,10.822 L65.539,10.966 L65.713,11.062 L65.86,11.191 L66.018,11.273 L66.231,11.227 L66.045,10.938 L66.025,10.868 L66.078,10.682 L66.072,10.586 L65.994,10.503 L65.537,10.273 L65.619,10.254 L65.707,10.219 L65.773,10.165 L65.8,10.084 L65.767,10.018 L65.687,9.988 L65.489,9.949 L65.602,9.9 L65.643,9.89 L65.348,9.759 L65.219,9.671 L65.301,9.631 L65.442,9.636 L65.791,9.683 L65.91,9.737 L66.013,9.474 L65.943,9.29 L65.566,8.965 L65.16,8.695 L65.123,8.602 L65.432,8.566 L65.389,8.472 L65.205,8.199 L65.141,8.142 L65.12,8.128 L65.093,8.063 L65.062,8.036 L65.029,8.034 L65.009,8.051 L65.002,8.072 L65.007,8.084 L64.849,8.051 L64.691,8.036 L64.515,7.926 L64.23,7.403 L64.101,7.231 L64.174,7.293 L64.416,7.448 L64.636,7.636 L64.683,7.66 L64.797,7.578 L64.56,7.341 L64.635,7.232 L64.635,7.183 L64.46,7.191 L64.291,7.176 L64.16,7.098 L64.101,6.913 L64.148,6.731 L64.253,6.574 L64.319,6.415 L64.26,6.224 L64.02,6.386 L63.811,6.574 L63.768,6.649 L63.772,6.687 L63.76,6.712 L63.672,6.754 L63.671,6.73 L63.592,6.707 L63.488,6.694 L63.406,6.701 L63.426,6.73 L63.466,6.807 L63.07,6.762 L62.882,6.771 L62.775,6.86 L62.722,6.807 L62.795,6.929 L62.985,7.011 L63.209,7.058 L63.381,7.072 L63.444,7.106 L63.469,7.182 L63.45,7.256 L63.381,7.29 L63.32,7.265 L63.27,7.216 L63.207,7.177 L63.097,7.183 L63.111,7.218 L63.134,7.303 L63.15,7.337 L63.062,7.327 L62.98,7.301 L62.826,7.231 L62.803,7.338 L62.748,7.463 L62.695,7.546 L62.67,7.525 L62.652,7.316 L62.627,7.221 L62.588,7.153 L62.294,6.904 L62.246,6.806 L62.267,6.707 L62.324,6.609 L62.338,6.503 L62.246,6.382 L62.168,6.43 L62.082,6.446 L61.998,6.43 L61.923,6.382 L61.757,6.44 L61.637,6.361 L61.66,6.251 L61.923,6.224 L61.776,6.039 L61.705,5.989 L61.784,5.939 L61.972,5.853 L62.064,5.96 L62.144,5.96 L62.208,5.92 L62.247,5.91 L62.28,5.989 L62.287,6.075 L62.313,6.146 L62.4,6.175 L62.722,6.091 L62.662,5.897 L62.513,5.737 L62.322,5.629 L62.134,5.588 L61.688,5.63 L61.444,5.599 L61.337,5.455 L61.289,5.266 L61.167,5.142 L60.854,4.946 L60.719,4.813 L60.653,4.723 L60.674,4.682 L60.449,4.668 L60.33,4.674 L60.192,4.734 L60.061,4.752 L60.005,4.793 L59.994,4.838 L60.012,4.953 L60.005,5 L59.846,5.265 L59.84,5.337 L59.858,5.388 L59.82,5.419 L59.658,5.429 L59.392,5.241 L59.38,5.176 L59.454,5.108 L59.629,5 L59.67,4.928 L59.699,4.848 L59.745,4.778 L59.846,4.735 L59.744,4.698 L59.691,4.687 L59.63,4.682 L59.564,4.664 L59.534,4.622 L59.512,4.568 L59.471,4.517 L59.45,4.475 L59.455,4.423 L59.441,4.381 L59.366,4.363 L59.309,4.38 L59.276,4.416 L59.256,4.452 L59.23,4.47 L58.994,4.469 L58.885,4.432 L58.803,4.261 L58.715,4.221 L58.608,4.232 L58.516,4.311 L58.43,4.193 L58.324,4.113 L58.221,4.117 L58.145,4.252 L58.155,4.375 L58.229,4.463 L58.332,4.541 L58.416,4.627 L58.397,4.665 L58.309,4.792 L58.164,4.632 L58.016,4.592 L57.639,4.627 L57.467,4.601 L57.317,4.529 L57.186,4.427 L57.08,4.309 L57.007,4.21 L56.93,4.073 L56.893,3.926 L56.946,3.801 L57.02,3.775 L57.344,3.775 L57.662,3.664 L57.545,3.543 L57.522,3.479 L57.561,3.399 L57.473,3.412 L57.238,3.51 L57.288,3.385 L57.3,3.314 L57.292,3.245 L57.253,3.149 L57.204,3.095 L57.139,3.096 L57.055,3.163 L57.055,3.214 L57.09,3.288 L57.11,3.38 L57.055,3.484 L56.874,3.576 L56.68,3.604 L56.534,3.657 L56.492,3.828 L56.597,4.203 L56.618,4.421 L56.517,4.517 L56.408,4.552 L56.366,4.632 L56.342,4.723 L56.279,4.793 L56.218,4.796 L55.96,4.735 L55.874,4.731 L55.824,4.737 L55.802,4.695 L55.808,4.374 L55.833,4.295 L55.881,4.23 L56.046,4.064 L56.067,3.975 L55.034,3.473 L54.709,3.2 L54.68,2.923 L54.842,3.029 L55.221,3.4 L55.149,3.075 L54.885,2.81 L54.565,2.577 L54.313,2.34 L54.227,2.036 L54.149,1.582 L54.033,1.2 L53.832,1.117 L53.949,1.283 L53.997,1.506 L53.976,1.735 L53.89,1.917 L53.812,1.968 L53.785,1.914 L53.788,1.467 L53.773,1.367 L53.73,1.275 L53.687,1.353 L53.623,1.388 L53.545,1.383 L53.46,1.338 L53.499,1.285 L53.525,1.232 L53.566,1.117 L53.479,1.13 L53.418,1.177 L53.381,1.25 L53.36,1.338 L53.114,1.186 L53.038,1.116 L53.108,1.084 L53.16,1.038 L53.188,0.976 L53.196,0.898 L53.325,0.963 L53.382,0.915 L53.408,0.744 L53.466,0.549 L53.527,0.534 L53.68,0.58 L53.663,0.616 L53.642,0.707 L53.625,0.743 L53.735,0.781 L53.791,0.873 L53.822,0.965 L53.858,1.007 L53.984,1 L54.05,0.965 L54.081,0.901 L54.101,0.797 L54.086,0.381 L54.146,0.226 L54.371,0.108 L54.25,0 L54.16,0.02 L54.083,0.097 L53.994,0.157 L53.859,0.178 L52.976,0.115 L52.741,0.244 L52.5,0.289 L52.4,0.373 L52.203,0.278 L51.75,0.261 L51.574,0.183 L51.447,0.11 L51.411,0.188 L51.422,0.311 L51.438,0.373 L51.358,0.519 L51.305,0.576 L51.225,0.639 L51.883,0.967 L52.196,1.191 L53.78,2.917 L53.919,2.977 L54.021,3.058 L54.261,3.565 L54.406,3.731 L54.874,4.122 L54.977,4.251 L55.223,4.737 L55.327,5.127 L55.299,5.525 L55.15,5.889 L54.898,6.177 L54.758,6.116 L54.607,6.089 L54.494,6.13 L54.476,6.281 L54.534,6.385 L54.844,6.653 L55.026,6.855 L55.133,6.932 L55.268,6.966 L55.413,6.939 L55.635,6.832 L55.75,6.86 L55.658,6.952 L55.385,7.12 L55.32,7.183 L55.365,7.265 L55.605,7.496 L55.691,7.554 L55.761,7.353 L55.847,7.176 L55.988,7.054 L56.226,7.023 L56.182,7.11 L56.118,7.191 L55.963,7.337 L56.017,7.333 L56.123,7.339 L56.176,7.337 L55.91,7.585 L55.871,7.715 L55.963,7.924 L56.63,8.685 L56.693,8.736 L56.765,8.724 L56.789,8.659 L56.817,8.083 L56.801,8.085 L56.78,8.062 L56.759,8.022 L56.764,7.977 L56.835,7.91 L56.934,7.874 L56.985,7.823 L56.919,7.712 L57.067,7.614 L57.155,7.574 L57.215,7.576 L57.308,7.692 L57.359,7.719 L57.431,7.684 L57.497,7.661 L57.583,7.644 L57.634,7.607 L57.56,7.454 L57.6,7.429 L57.676,7.435 L57.875,7.541 L58.027,7.542 L58.152,7.474 L58.198,7.337 L58.136,7.212 L58.037,7.066 L58.006,6.924 L58.144,6.807 L58.269,7.174 L58.355,7.289 L58.357,7.007 L58.383,6.966 L58.47,6.975 L58.508,7.005 L58.515,7.063 L58.515,7.155 L58.603,7.176 L58.886,7.105 L58.76,7.282 L58.709,7.445 L58.68,7.496 L58.581,7.55 L58.531,7.53 L58.488,7.493 L58.414,7.495 L58.279,7.603 L58.246,7.75 L58.242,7.902 L58.198,8.036 L57.986,7.766 L57.962,7.865 L57.977,8.134 L57.959,8.19 L57.85,8.158 L57.766,8.082 L57.692,7.994 L57.616,7.925 L57.604,7.959 L57.561,8.037 L57.412,7.976 L57.311,8.077 L57.256,8.257 L57.238,8.432 L57.18,8.561 L56.925,8.842 L56.867,8.966 L56.915,9.112 L60.419,12.951 L60.698,13.406 L61.704,14.524 L61.952,15.272 L62.139,15.543 L62.516,15.536 L62.875,15.41 L63.027,15.304 L63.091,15.142 L63.005,14.972 L62.847,14.842 L62.773,14.748 L62.933,14.688 L62.863,14.59 L62.752,14.587 L62.634,14.6 L62.536,14.553 L62.109,14.023 L62.048,13.976 L61.97,13.93 L61.902,13.875 L61.835,13.726 L61.748,13.676 L61.646,13.639 L61.575,13.597 L61.515,13.514 L61.415,13.342 L61.36,13.274 L61.299,13.13 L61.266,12.926 L61.198,12.743 L61.038,12.664 L60.985,12.583 L60.585,12.128 L60.618,12.003 L60.913,11.874 L60.96,11.705 L60.919,11.666 L60.843,11.612 L60.785,11.536 L60.802,11.433 L60.855,11.428 L60.941,11.477 L61.023,11.545 L61.068,11.596 L61.103,11.791 L61.032,11.911 L60.745,12.126 L60.986,12.269 L61.082,12.36 L61.172,12.592 L61.395,12.781 L61.446,12.899 L61.453,13.2 L61.505,13.343 L61.627,13.403 L61.731,13.44 L61.864,13.526 L61.979,13.624 L62.028,13.697 L62.104,13.744 L62.473,13.753 L62.617,13.778 L62.751,13.876 L62.837,13.987 L62.905,14.102 L63.091,14.324 L63.144,14.353 L63.228,14.362 L63.302,14.387 L63.404,14.493 L63.467,14.521 L63.543,14.521 L63.608,14.506 L63.653,14.466 L63.673,14.391 L63.716,14.375 L63.995,14.314 L63.856,14.143 L63.772,14.074 L63.702,14.072 L63.639,14.155 L63.6,14.193 L63.542,14.208 L63.471,14.176 L63.471,14.103 L63.52,13.992 L63.438,13.894 L63.362,13.848 L63.262,13.834 L63.121,13.833 L63.018,13.8 L63.018,13.632 L62.936,13.569 L63.276,13.349 L63.393,13.354 L63.36,13.569 L63.522,13.412 L63.608,13.363 L63.731,13.357 L63.661,13.508 L63.635,13.588 L63.625,13.675 L63.632,13.783 L63.653,13.809 L63.705,13.808 L63.789,13.833 L63.858,13.838 L63.925,13.821 L63.975,13.843 L63.996,13.965 L64.022,14.034 L64.086,14.036 L64.172,14.023 L64.26,14.049 L64.221,14.079 L64.102,14.207 L64.326,14.118 L64.514,13.905 L64.618,13.642 L64.581,13.404 L64.876,13.472 L64.952,13.514 L65.042,13.637 L65.021,13.707 L64.921,13.72 L64.79,13.67 L64.757,13.784 L64.747,13.852 L64.731,13.909 L64.684,13.993 L64.502,14.184 L64.382,14.433 L64.341,14.63 L64.284,14.621 L64.152,14.523 L63.924,14.463 L63.847,14.494 L63.886,14.633 L63.95,14.675 L64.061,14.709 L64.255,14.74 L64.397,14.677 L64.549,14.559 L64.678,14.491 L64.739,14.581 L64.822,14.537 L65.009,14.394 L65.084,14.364 L65.192,14.356 L65.3,14.329 L65.403,14.281 L65.485,14.21 L65.514,14.261 L65.526,14.273 L65.546,14.28 L65.591,14.316 L65.566,14.417 L65.519,14.445 L65.454,14.447 L65.377,14.475 L65.165,14.634 L64.934,14.718 L64.835,14.771 L64.712,14.872 L64.587,14.946 L64.432,14.986 L64.102,15.005 L63.979,14.966 L63.874,14.909 L63.79,14.927 L63.73,15.11 L63.623,15.062 L63.674,15.311 L63.846,15.441 L64.09,15.487 L64.546,15.46 L64.617,15.425 L64.713,15.351 L64.842,15.218 L64.895,15.215 L65.139,15.339 L65.151,15.383 L64.979,15.508 L64.949,15.597 L65.012,15.683 L65.106,15.768 L65.168,15.851 L65.039,15.971 L65.008,16.011 L65.015,16.036 L65.017,16.44 L65.045,16.499 L65.115,16.382 L65.176,16.471 L65.1,16.818 L65.166,16.971 L65.208,16.952 L65.33,16.917 L65.288,16.99 L65.164,17.076 L65.113,17.128 L65.079,17.244 L65.064,17.371 L65.033,17.457 L64.949,17.451 L64.867,17.607 L64.789,17.519 L64.713,17.342 L64.637,17.234 L64.639,17.287 L64.633,17.397 L64.637,17.45 L64.481,17.366 L64.405,17.347 L64.315,17.34 L64.356,17.259 L64.366,17.185 L64.336,17.122 L64.263,17.076 L64.369,17.065 L64.481,17.027 L64.559,16.988 L64.551,16.97 L64.467,16.959 L64.154,16.864 L64.271,16.787 L64.279,16.7 L64.205,16.629 L64.074,16.599 L63.963,16.54 L63.787,16.282 L63.633,16.166 L63.516,15.911 L63.408,15.852 L63.297,15.886 L63.222,15.969 L63.097,16.175 L63.056,16.064 L63.066,15.958 L63.15,15.746 L63.05,15.757 L62.99,15.799 L62.959,15.868 L62.937,15.958 L62.986,16.315 L63.215,16.672 L64.285,17.761 L64.687,18.352 L64.833,18.7 L65.004,19.431 L65.318,20.317 L65.408,20.454 L65.562,20.519 L65.745,20.468 L65.913,20.348 L66.019,20.212 L66.206,20.348 L66.269,20.345 L66.344,20.264 L66.381,20.177 L66.429,19.99 L66.497,19.894 L66.7,19.77 L66.96,19.708 L67.484,19.687 L67.984,19.759 L67.954,19.844 L67.877,19.922 L67.782,19.979 L67.693,20 L67.605,20.095 L67.619,20.268 L67.732,20.345 L67.931,20.154 L68,20.268 L68.056,20.417 L68.126,20.516 L68.248,20.481 L68.395,20.583 L68.791,20.71 L68.777,20.794 L68.841,20.884 L68.877,20.991 L68.856,21.08 L68.748,21.116 L68.645,21.068 L68.35,20.794 L68.16,20.809 L67.981,20.921 L67.661,21.233 L67.668,21.064 L67.615,21.046 L67.2,21.344 L67.084,21.39 L67.223,21.442 L67.614,21.501 L67.768,21.496 L67.655,21.57 L67.552,21.58 L67.323,21.544 L67.232,21.599 L67.252,21.72 L67.352,21.921 L67.266,22.104 L67.132,22.019 L67.02,21.825 L66.991,21.575 L66.598,20.96 L66.612,20.913 L66.686,20.829 L66.703,20.748 L66.625,20.683 L66.513,20.651 L66.2,20.724 L65.98,20.682 L65.853,20.692 L65.908,20.907 L66.236,21.407 L66.285,21.573 L66.312,21.641 L66.496,21.92 L66.576,22.166 L66.889,22.763 L67.004,22.905 L67.176,23.023 L67.285,22.979 L67.508,22.662 L67.572,22.611 L67.722,22.533 L67.797,22.481 L67.903,22.439 L67.983,22.47 L68.022,22.525 L68.006,22.556 L67.818,22.619 L67.714,22.768 L67.649,22.945 L67.563,23.091 L67.477,23.137 L67.248,23.183 L67.161,23.225 L67.091,23.319 L67.09,23.402 L67.173,23.758 L67.62,24.617 L68.118,26.142 L68.251,26.264 L68.488,26.179 L68.542,26.193 L68.587,26.218 L68.618,26.225 L68.657,26.19 L68.685,26.102 L68.724,26.067 L69.046,25.908 L69.101,26.025 L69.075,26.132 L68.992,26.219 L68.883,26.284 L68.96,26.297 L69.023,26.328 L69.068,26.377 L69.099,26.443 L68.679,26.497 L68.244,26.5 L67.876,26.606 L67.666,26.972 L67.609,27.709 L67.636,27.852 L67.849,27.975 L67.948,27.879 L68.015,27.695 L68.14,27.561 L68.32,27.576 L68.413,27.709 L68.402,27.859 L68.275,27.932 L68.032,28.149 L67.931,28.185 L67.855,28.195 L67.788,28.221 L67.719,28.304 L67.686,28.388 L67.659,28.513 L67.669,28.626 L67.744,28.675 L67.87,28.655 L67.92,28.6 L67.95,28.523 L68.01,28.434 L68.166,28.399 L68.383,28.454 L68.537,28.57 L68.516,28.722 L68.574,28.781 L68.635,28.739 L68.695,28.723 L68.841,28.723 L68.7,28.888 L68.48,28.9 L68.243,28.875 L68.036,28.936 L68.193,29.066 L68.25,29.1 L68.092,29.163 L67.985,29.107 L67.887,29.007 L67.768,28.937 L67.768,29.048 L67.721,29.048 L67.67,29.004 L67.617,28.945 L67.577,28.869 L67.564,28.783 L67.443,28.824 L67.297,28.845 L67.152,28.835 L67.029,28.783 L66.993,28.898 L67.031,29.032 L67.097,29.174 L67.135,29.313 L67.125,29.476 L67.049,29.752 L67.009,30.209 L66.951,30.508 L66.85,30.781 L66.576,31.272 L66.513,31.561 L66.493,32.902 L66.465,33.037 L66.415,33.153 L66.394,33.27 L66.445,33.408 L66.327,33.435 L66.282,33.516 L66.284,33.755 L66.265,33.857 L66.193,34.042 L66.13,34.325 L66.014,34.487 L65.082,35.247 L64.741,35.448 L64.366,35.545 L63.331,35.487 L63.159,35.526 L61.175,36.499 L60.373,36.778 L60.02,37 L59.791,37.347 L59.687,37.717 L59.648,38.074 L59.695,38.429 L59.842,38.788 L60.076,39.099 L60.358,39.336 L61.412,39.945 L61.86,40.063 L63.184,40.226 L63.604,40.329 L63.991,40.499 L64.309,40.758 L64.76,41.313 L64.908,41.455 L65.734,42.059 L65.92,42.153 L66.119,42.191 L66.596,42.228 L67.219,42.407 L67.85,42.403 L68.051,42.431 L68.483,42.588 L69.024,42.851 L69.735,43.473 L69.889,43.691 L70.481,44.163 L70.602,44.338 L70.706,44.544 L70.852,44.962 L70.953,45.468 L71.074,45.652 L71.335,45.704 L71.581,45.63 L71.769,45.48 L71.915,45.283 L72.029,45.069 L72.079,45.069 L72.07,45.264 L72.007,45.422 L71.9,45.547 L71.765,45.648 L71.591,45.75 L71.494,45.791 L71.391,45.813 L71.266,45.8 L71.182,45.775 L71.133,45.803 L71.102,46.111 L71.005,46.556 L70.938,46.692 L70.926,46.758 L70.934,46.873 L70.957,46.991 L71.008,47.112 L70.957,47.137 L70.885,47.146 L70.828,47.147 L70.803,47.166 L70.803,47.21 L70.809,47.261 L70.807,47.301 L70.762,47.481 L70.735,47.918 L70.671,48.077 L70.588,48.209 L70.379,48.738 L70.015,49.358 L69.579,49.915 L69.119,50.294 L69.049,50.412 L68.884,50.766 L68.861,50.959 L68.838,51.037 L68.781,51.132 L68.713,51.203 L68.623,51.273 L68.525,51.328 L68.435,51.349 L68.342,51.38 L68.205,51.523 L68.114,51.554 L68.053,51.605 L68.112,51.708 L68.205,51.801 L68.248,51.822 L68.278,51.926 L68.282,52 L68.243,52.068 L68.142,52.14 L68.04,51.937 L67.961,51.941 L67.858,52.031 L67.69,52.087 L67.573,52.162 L67.383,52.493 L67.189,52.629 L66.888,52.906 L66.759,52.993 L66.406,53.046 L66.264,53.104 L66.174,53.258 L66.247,53.528 L66.531,53.75 L66.909,53.897 L67.265,53.954 L67.367,53.918 L67.463,53.849 L67.553,53.796 L67.635,53.817 L67.721,53.867 L67.805,53.852 L67.877,53.802 L67.93,53.74 L67.979,53.562 L67.869,53.486 L67.506,53.418 L67.55,53.291 L67.616,53.197 L67.707,53.119 L67.828,53.046 L67.99,52.988 L68.219,52.959 L68.422,53.004 L68.512,53.18 L68.475,53.375 L68.305,53.682 L68.246,53.846 L68.254,54.035 L68.307,54.177 L68.322,54.305 L68.221,54.453 L68.238,54.517 L68.342,54.597 L68.515,54.693 L68.638,54.714 L68.724,54.704 L68.797,54.661 L69.179,54.348 L69.357,54.254 L69.556,54.215 L69.767,54.233 L70.693,54.504 L70.779,54.559 L70.814,54.641 L70.689,55.22 L70.697,55.329 L70.748,55.424 L70.814,55.503 L70.849,55.589 L70.808,55.704 L70.931,55.782 L71.002,56.023 L71.124,56.076 L71.72,56.032 L71.847,55.995 L72.101,55.775 L72.232,55.704 L72.765,55.543 L74.474,54.534 L74.929,54.355 L75.318,54.142 L75.605,53.913 L76.789,53.178 L77.576,52.345 L77.741,52.052 L77.988,51.344 L78.074,51.182 L78.209,51.005 L78.373,50.863 L78.758,50.742 L78.878,50.592 L79,50.227 L79.271,49.709 L79.45,49.487 L79.75,48.905 L79.802,48.834 L79.858,48.801 L79.985,48.788 L80.039,48.76 L80.192,48.537 L80.235,48.451 L80.266,48.361 L80.278,48.282 L80.346,48.183 L80.809,47.83 L81.259,47.268 L81.41,47.23 L81.601,47.266 L81.791,47.256 L81.924,47.082 L82.011,46.529 L82.508,45.747 L82.429,45.756 L82.357,45.789 L82.294,45.843 L82.243,45.911 L82.269,45.754 L82.339,45.625 L82.532,45.41 L82.618,45.363 L82.688,45.399 L82.752,45.459 L82.827,45.486 L82.89,45.464 L83.228,45.224 L83.541,44.874 L83.731,44.585 L83.854,44.318 L83.876,44.282 L83.975,44.164 L83.991,44.128 L84,44.076 L83.984,43.88 L83.992,43.779 L84.025,43.705 L84.131,43.576 L84.296,43.26 L84.556,42.577 L84.66,42.426 L84.699,42.404 L84.819,42.365 L84.85,42.348 L84.87,42.3 L84.865,42.254 L84.855,42.217 L84.855,42.188 L85.033,41.669 L85.093,41.583 L85.272,41.529 L85.371,41.483 L85.453,41.423 L85.489,41.363 L85.569,41.171 L85.709,41.018 L85.735,40.912 L85.489,40.861 L85.225,40.887 L85.088,40.885 L84.986,40.835 L84.931,40.793 L84.728,40.674 L84.601,40.621 L84.554,40.577 L84.504,40.58 L84.426,40.693 L84.405,40.788 L84.419,40.954 L84.388,40.999 L84.257,40.927 L84.277,40.709 L84.427,40.298 L84.38,39.575 L84.325,39.415 L84.237,39.329 L84.147,39.274 L84.081,39.204 L84.056,39.075 L84.062,38.939 L84.087,38.837 L84.142,38.749 L84.241,38.651 L84.327,38.436 L84.353,38.412 L84.534,38.302 L84.812,38.066 L85.001,37.867 L85.106,37.716 L85.188,37.544 L85.219,37.372 L85.311,37.278 L86.376,36.881 L87.814,36.333 L88.015,36.189 L88.087,36.207 L88.157,36.258 L88.254,36.288 L89.511,36.315 L90.74,36.359 L90.857,36.394 L91.093,36.522 L91.174,36.553 L91.275,36.432 L91.421,36.424 L91.532,36.486 L91.525,36.577 L91.454,36.664 L91.385,36.775 L91.325,36.902 L91.284,37.029 L91.275,37.258 L91.337,37.507 L91.55,37.984 L91.667,37.883 L91.79,37.805 L91.887,37.717 L91.954,37.468 L92.139,37.077 L92.563,36.737 L92.456,36.541 L92.198,36.438 L91.661,36.392 L91.72,36.237 L91.823,36.123 L91.886,36.01 L91.818,35.857 L91.875,35.727 L91.896,35.423 L92,35.198 L92.084,34.743 L92.092,34.336 L92.141,34.162 L92.278,33.969 L92.297,33.879 L92.232,33.794 L92.086,33.673 L92.069,33.637 L92.047,33.554 L92.043,33.513 L92.051,33.421 L92.078,33.416 L92.131,33.433 L92.196,33.408 L92.358,33.313 L92.555,33.273 L92.752,33.308 L93.059,33.531 L93.196,33.473 L93.987,32.924 L94.862,32.159 L94.905,32.096 L94.899,31.594 L94.932,31.526 L95.225,31.406 L95.278,31.34 L95.285,31.231 L95.24,31.148 L95.16,31.093 L95.063,31.066 L95.117,30.965 L95.135,30.795 L95.17,30.695 L95.295,30.588 L95.362,30.514 L95.387,30.426 L95.305,30.323 L95.158,30.187 L95.049,30.031 L95.094,29.872 L95.211,29.738 L95.306,29.585 L95.33,29.43 L95.135,29.102 L95.211,28.981 L95.367,28.886 L95.494,28.783 L95.537,28.58 L95.453,28.411 L95.34,28.249 L95.278,28.067 L95.303,27.984 L95.362,27.908 L95.494,27.776 L95.58,27.652 L95.797,27.165 L95.908,26.995 L96.186,26.84 L96.293,26.648 L96.451,26.287 L96.746,26.043 L96.891,25.847 L96.957,25.778 L96.971,25.647 L96.85,25.488 M77.771,34.154 L77.71,34.225 L77.4,34.424 L77.051,34.729 L76.916,34.795 L76.66,34.882 L76.565,34.942 L76.442,35.061 L76.367,35.026 L76.27,35.01 L76.1,35.008 L75.968,35.029 L75.928,35.084 L75.952,35.168 L76.017,35.273 L75.89,35.304 L75.566,35.273 L75.449,35.292 L75.113,35.437 L75.152,35.226 L75.211,35.122 L75.287,34.88 L75.603,34.431 L75.642,34.319 L75.623,34.148 L75.55,34.055 L75.435,34.046 L75.154,34.212 L75.078,34.155 L75.053,34.025 L75.055,33.891 L75.125,33.605 L75.275,33.367 L75.504,33.202 L75.953,33.107 L76,33.125 L76.02,33.226 L76.051,33.258 L76.125,33.206 L76.204,33.13 L76.256,33.09 L76.438,33.12 L76.462,33.2 L76.441,33.32 L76.493,33.466 L76.691,33.295 L76.814,33.241 L76.868,33.328 L76.876,33.456 L76.907,33.548 L76.978,33.605 L77.105,33.625 L77.191,33.615 L77.306,33.581 L77.409,33.506 L77.452,33.381 L77.484,33.347 L77.556,33.369 L77.628,33.424 L77.661,33.488 L77.633,33.669 L77.636,33.701 L77.687,33.783 L77.74,33.908 L77.771,34.043 L77.771,34.154 L77.771,34.154 M10.355,98.932 L10.315,98.94 L10.283,98.971 L10.288,99.011 L10.302,99.059 L10.289,99.095 L10.352,99.008 L10.364,98.981 L10.356,98.963 L10.355,98.932 M12.588,96.229 L12.677,96.168 L12.76,96.037 L12.659,95.978 L12.555,95.958 L12.44,95.968 L12.351,96.021 L12.319,96.124 L12.367,96.225 L12.472,96.254 L12.588,96.229 M12.679,99.451 L12.736,99.424 L12.739,99.387 L12.763,99.383 L12.794,99.35 L12.76,99.283 L12.686,99.294 L12.581,99.273 L12.539,99.322 L12.57,99.357 L12.612,99.382 L12.611,99.45 L12.679,99.451 M19.467,95.869 L19.378,95.935 L19.265,95.968 L19.144,95.978 L19.208,96.076 L19.291,96.15 L19.343,96.218 L19.307,96.3 L19.381,96.229 L19.543,96.1 L19.638,95.94 L19.515,95.768 L19.467,95.869 M10.699,99.455 L10.514,99.541 L10.421,99.65 L10.483,99.742 L10.66,99.703 L10.849,99.611 L10.951,99.545 L10.876,99.441 L10.699,99.455 M13.771,93.658 L13.797,93.633 L13.803,93.592 L13.78,93.552 L13.746,93.573 L13.65,93.58 L13.626,93.601 L13.708,93.607 L13.771,93.658 M16.851,97.184 L16.856,97.131 L16.795,97.076 L16.732,97.111 L16.709,97.17 L16.804,97.193 L16.851,97.184"/>
</g>

<g fill="#000000" fill-opacity="1" stroke="#000000" stroke-opacity="1" stroke-width="1" stroke-linecap="square" stroke-linejoin="miter" stroke-miterlimit="2" transform="matrix(0.615533,0,0,0.615533,133.142,24.9982)"
>
</g>

<g fill="#000000" fill-opacity="1" stroke="#000000" stroke-opacity="1" stroke-width="1" stroke-linecap="square" stroke-linejoin="miter" stroke-miterlimit="2" transform="matrix(0.999891,0,0,0.999891,8.02066,8)"
>
</g>

<g fill="#000000" fill-opacity="1" stroke="#000000" stroke-opacity="1" stroke-width="1" stroke-linecap="square" stroke-linejoin="miter" stroke-miterlimit="2" transform="matrix(1.28383,0,0,1.28383,198.569,22.5901)"
>
</g>

<g fill="#ebebe4" fill-opacity="1" stroke="none" transform="matrix(1.28383,0,0,1.28383,198.569,22.5901)"
>
<path vector-effect="none" fill-rule="nonzero" d="M27.2,12.001 L17.9732,34.823 L26.1146,34.823 L26.1146,39.9893 L11.2396,39.9893 L11.2396,37.6548 L21.6276,12.0008 L27.1995,12.0008 L27.2,12.001 M24.508,36.4298 L15.5896,36.4298 L24.8212,13.6078 L22.7088,13.6078 L12.8476,37.9678 L12.8476,38.3815 L24.5076,38.3815 L24.5076,36.4297 L24.508,36.4298 M18.4592,15.543 L17.8086,17.15 L11.952,17.15 L11.952,12.0017 L19.8937,12.0017 L19.2431,13.6087 L13.5595,13.6087 L13.5595,15.5431 L18.4591,15.5431 L18.4592,15.543 M34.9264,34.8228 L43.2458,34.8228 L43.2458,39.9891 L29.7598,39.9891 L29.7598,30.2134 L31.3916,30.2134 L31.3916,38.3573 L41.6136,38.3573 L41.6136,36.4545 L33.2942,36.4545 L33.2942,30.2134 L34.926,30.2134 L34.926,34.8228 L34.9264,34.8228 M41.998,23.403 L41.998,28.5879 L29.76,28.5829 L29.76,12.0009 L43.139,12.0009 L43.139,17.1672 L34.9263,17.1672 L34.9263,23.4028 L41.9979,23.4028 L41.998,23.403 M40.368,26.956 L40.3674,25.0358 L33.2946,25.0358 L33.2946,15.5361 L41.508,15.5361 L41.508,13.6333 L31.392,13.6333 L31.392,26.9613 L40.368,26.956 M49.856,38.3574 L50.4495,35.3835 L52.1135,35.3835 L51.1931,39.9891 L45.9201,39.9891 L46.8405,35.3835 L48.5039,35.3835 L47.9091,38.3574 L49.8559,38.3574 L49.856,38.3574 M54.418,15.536 L55.8755,15.536 L58.8128,30.219 L51.482,30.219 L54.418,15.536 M53.474,28.587 L56.8219,28.587 L55.1479,20.2142 L53.474,28.587 M58.782,12.001 L64.3776,39.99 L59.1034,39.99 L57.8568,33.754 L47.1668,33.7534 L51.5144,12.0014 L58.7819,12.0014 L58.782,12.001 M59.194,32.122 L60.4418,38.3576 L62.3861,38.3576 L57.4449,13.6336 L52.8529,13.6336 L49.1559,32.1226 L59.1939,32.1226 L59.194,32.122 M67.48,39.9892 L67.48,12.0012 L72.663,12.0012 L72.663,39.9892 L67.48,39.9892 M69.1099,13.633 L69.1099,38.357 L71.0313,38.357 L71.0313,13.633 L69.1099,13.633 L69.1099,13.633 M74.296,34.8224 L80.2884,34.8224 L80.2884,39.9893 L74.296,39.9893 L74.296,38.3575 L78.6567,38.3575 L78.6567,36.4547 L74.296,36.4547 L74.296,34.8223 L74.296,34.8224 M86.456,38.3574 L87.0495,35.3835 L88.7135,35.3835 L87.7931,39.9891 L82.5201,39.9891 L83.4405,35.3835 L85.1039,35.3835 L84.5091,38.3574 L86.4559,38.3574 L86.456,38.3574 M91.018,15.536 L92.4755,15.536 L95.4128,30.219 L88.082,30.219 L91.018,15.536 M90.074,28.587 L93.4219,28.587 L91.7479,20.2142 L90.074,28.587 M95.382,12.001 L100.978,39.99 L95.7034,39.99 L94.4568,33.754 L83.7668,33.7534 L88.1144,12.0014 L95.3819,12.0014 L95.382,12.001 M95.794,32.122 L97.0418,38.3576 L98.9861,38.3576 L94.0449,13.6336 L89.4529,13.6336 L85.7559,32.1226 L95.7939,32.1226 L95.794,32.122 M120.001,40.0028 L120.019,40.0387 L114.45,40.0387 L108.792,25.3507 L108.792,40.0387 L103.636,40.0387 L103.636,12.0017 L109.187,12.0017 L120.001,39.9997 L120.001,40.0028 L120.001,40.0028 M115.555,38.4281 L117.659,38.4281 L108.081,13.6111 L105.244,13.6111 L105.244,38.4281 L107.182,38.4281 L107.182,16.6901 L115.555,38.4281 M116.471,13.611 L116.471,26.378 L114.861,22.2076 L114.861,12.0006 L120.001,12.0006 L120.001,35.5226 L118.39,31.3494 L118.39,13.6104 L116.471,13.6104 L116.471,13.611 M136.759,12.001 L140.109,14.9594 L140.109,37.0494 L136.759,39.9892 L124.04,39.9892 L124.04,18.7952 L125.671,18.7952 L125.671,38.3572 L136.143,38.3572 L136.148,38.3541 L136.151,38.3572 L138.477,36.3105 L138.477,15.6945 L138.415,15.6399 L138.42,15.635 L136.151,13.633 L136.147,13.6373 L136.142,13.633 L125.67,13.633 L125.67,15.5383 L135.405,15.5358 L136.574,16.5672 L136.574,35.4242 L135.405,36.455 L127.592,36.455 L127.592,18.796 L129.224,18.796 L129.224,34.823 L134.367,34.823 L134.943,34.3151 L134.943,17.6771 L134.367,17.1679 L124.04,17.1654 L124.04,12.0016 L136.759,12.0016 L136.759,12.001"/>
</g>

<g fill="#000000" fill-opacity="1" stroke="#000000" stroke-opacity="1" stroke-width="1" stroke-linecap="square" stroke-linejoin="miter" stroke-miterlimit="2" transform="matrix(1.28383,0,0,1.28383,198.569,22.5901)"
>
</g>

<g fill="#000000" fill-opacity="1" stroke="#000000" stroke-opacity="1" stroke-width="1" stroke-linecap="square" stroke-linejoin="miter" stroke-miterlimit="2" transform="matrix(0.999891,0,0,0.999891,8.02066,8)"
>
</g>

<g fill="#000000" fill-opacity="1" stroke="#000000" stroke-opacity="1" stroke-width="1" stroke-linecap="square" stroke-linejoin="miter" stroke-miterlimit="2" transform="matrix(0.999891,0,0,0.999891,8.02066,8)"
>
</g>

<g fill="#000000" fill-opacity="1" stroke="#000000" stroke-opacity="1" stroke-width="1" stroke-linecap="square" stroke-linejoin="miter" stroke-miterlimit="2" transform="matrix(1,0,0,1,0,0)"
>
</g>

<g fill="#000000" fill-opacity="1" stroke="#000000" stroke-opacity="1" stroke-width="1" stroke-linecap="square" stroke-linejoin="miter" stroke-miterlimit="2" transform="matrix(1,0,0,1,0,0)"
>
</g>

<g fill="#000000" fill-opacity="1" stroke="#000000" stroke-opacity="1" stroke-width="1" stroke-linecap="square" stroke-linejoin="miter" stroke-miterlimit="2" transform="matrix(1,0,0,1,0,0)"
>
</g>

<g fill="#000000" fill-opacity="1" stroke="#000000" stroke-opacity="1" stroke-width="1" stroke-linecap="square" stroke-linejoin="miter" stroke-miterlimit="2" transform="matrix(1,0,0,1,0,0)"
>
</g>

<g fill="#000000" fill-opacity="1" stroke="#000000" stroke-opacity="1" stroke-width="1" stroke-linecap="square" stroke-linejoin="miter" stroke-miterlimit="2" transform="matrix(0.999891,0,0,0.999891,8.02066,8)"
>
</g>

<g fill="#000000" fill-opacity="1" stroke="#000000" stroke-opacity="1" stroke-width="1" stroke-linecap="square" stroke-linejoin="miter" stroke-miterlimit="2" transform="matrix(0.999891,0,0,0.999891,8.02066,8)"
>
</g>

<g fill="#000000" fill-opacity="1" stroke="#000000" stroke-opacity="1" stroke-width="1" stroke-linecap="square" stroke-linejoin="miter" stroke-miterlimit="2" transform="matrix(0.999891,0,0,0.999891,8.02066,8)"
>
</g>

<g fill="#000000" fill-opacity="1" stroke="#000000" stroke-opacity="1" stroke-width="1" stroke-linecap="square" stroke-linejoin="miter" stroke-miterlimit="2" transform="matrix(0.999891,0,0,0.999891,8.02066,8)"
>
</g>

<g fill="#000000" fill-opacity="1" stroke="#000000" stroke-opacity="1" stroke-width="1" stroke-linecap="square" stroke-linejoin="miter" stroke-miterlimit="2" transform="matrix(0.999891,0,0,0.999891,8.02066,8)"
>
</g>

<g fill="#000000" fill-opacity="1" stroke="#000000" stroke-opacity="1" stroke-width="1" stroke-linecap="square" stroke-linejoin="miter" stroke-miterlimit="2" transform="matrix(0.999891,0,0,0.999891,8.02066,8)"
>
</g>

<g fill="#000000" fill-opacity="1" stroke="#000000" stroke-opacity="1" stroke-width="1" stroke-linecap="square" stroke-linejoin="miter" stroke-miterlimit="2" transform="matrix(0.999891,0,0,0.999891,8.02066,8)"
>
</g>

<g fill="#000000" fill-opacity="1" stroke="#000000" stroke-opacity="1" stroke-width="1" stroke-linecap="square" stroke-linejoin="miter" stroke-miterlimit="2" transform="matrix(1,0,0,1,0,0)"
>
</g>

<g fill="#000000" fill-opacity="1" stroke="#000000" stroke-opacity="1" stroke-width="1" stroke-linecap="square" stroke-linejoin="miter" stroke-miterlimit="2" transform="matrix(1,0,0,1,0,0)"
>
</g>

<g fill="#000000" fill-opacity="1" stroke="#000000" stroke-opacity="1" stroke-width="1" stroke-linecap="square" stroke-linejoin="miter" stroke-miterlimit="2" transform="matrix(1,0,0,1,0,0)"
>
</g>

<g fill="#000000" fill-opacity="1" stroke="#000000" stroke-opacity="1" stroke-width="1" stroke-linecap="square" stroke-linejoin="miter" stroke-miterlimit="2" transform="matrix(1,0,0,1,0,0)"
>
</g>

<g fill="#000000" fill-opacity="1" stroke="#000000" stroke-opacity="1" stroke-width="1" stroke-linecap="square" stroke-linejoin="miter" stroke-miterlimit="2" transform="matrix(1,0,0,1,0,0)"
>
</g>

<g fill="#000000" fill-opacity="1" stroke="#000000" stroke-opacity="1" stroke-width="1" stroke-linecap="square" stroke-linejoin="miter" stroke-miterlimit="2" transform="matrix(1,0,0,1,0,0)"
>
</g>
</g>
</svg>
